STARTFONT 2.1
COMMENT
COMMENT Converted from OpenType font "EncodeSans-VariableFont_wdth,wght.ttf" by "otf2bdf 3.0".
COMMENT
FONT -FreeType-Encode Sans Condensed Thin-Medium-R-Normal--21-210-72-72-P-82-ISO10646-1
SIZE 21 72 72
FONTBOUNDINGBOX 25 27 -3 -5
STARTPROPERTIES 19
FOUNDRY "FreeType"
FAMILY_NAME "Encode Sans Condensed Thin"
WEIGHT_NAME "Medium"
SLANT "R"
SETWIDTH_NAME "Normal"
ADD_STYLE_NAME ""
PIXEL_SIZE 21
POINT_SIZE 210
RESOLUTION_X 72
RESOLUTION_Y 72
SPACING "P"
AVERAGE_WIDTH 82
CHARSET_REGISTRY "ISO10646"
CHARSET_ENCODING "1"
FONT_ASCENT 21
FONT_DESCENT 4
COPYRIGHT "Copyright 2020 The Encode Project Authors (https://github.com/thundernixon/Encode-Sans), with Reserved Font Name 'Encode Sans'."
_OTF_FONTFILE "EncodeSans-VariableFont_wdth,wght.ttf"
_OTF_PSNAME "EncodeSans-CondensedThin"
ENDPROPERTIES
CHARS 687
STARTCHAR 0000
ENCODING 0
SWIDTH 0 0
DWIDTH 0 0
BBX 0 0 0 0
BITMAP
ENDCHAR
STARTCHAR 000D
ENCODING 13
SWIDTH 190 0
DWIDTH 4 0
BBX 0 0 0 0
BITMAP
ENDCHAR
STARTCHAR 0020
ENCODING 32
SWIDTH 190 0
DWIDTH 4 0
BBX 0 0 0 0
BITMAP
ENDCHAR
STARTCHAR 0021
ENCODING 33
SWIDTH 190 0
DWIDTH 4 0
BBX 2 16 1 0
BITMAP
40
40
40
40
40
40
40
40
40
40
40
40
40
00
00
C0
ENDCHAR
STARTCHAR 0022
ENCODING 34
SWIDTH 285 0
DWIDTH 6 0
BBX 4 7 1 10
BITMAP
90
90
90
90
90
90
90
ENDCHAR
STARTCHAR 0023
ENCODING 35
SWIDTH 523 0
DWIDTH 11 0
BBX 9 16 1 0
BITMAP
1200
1200
1200
2200
2200
FF80
2200
2400
2400
2400
FF80
2400
2400
2400
2400
4400
ENDCHAR
STARTCHAR 0024
ENCODING 36
SWIDTH 428 0
DWIDTH 9 0
BBX 7 21 1 -3
BITMAP
10
10
3E
40
80
80
80
80
80
60
18
06
02
02
02
02
02
FC
10
10
10
ENDCHAR
STARTCHAR 0025
ENCODING 37
SWIDTH 761 0
DWIDTH 16 0
BBX 14 16 1 0
BITMAP
3040
4840
8440
8480
8480
8480
8510
8568
8944
7284
0284
0484
0484
0484
0844
0838
ENDCHAR
STARTCHAR 0026
ENCODING 38
SWIDTH 619 0
DWIDTH 13 0
BBX 12 16 1 0
BITMAP
0F00
1000
2000
2000
2000
2000
2000
1000
2840
4440
8240
8140
80C0
4040
40A0
3F10
ENDCHAR
STARTCHAR 0027
ENCODING 39
SWIDTH 190 0
DWIDTH 4 0
BBX 1 7 1 10
BITMAP
80
80
80
80
80
80
80
ENDCHAR
STARTCHAR 0028
ENCODING 40
SWIDTH 285 0
DWIDTH 6 0
BBX 4 22 1 -5
BITMAP
10
20
20
40
40
40
40
80
80
80
80
80
80
80
80
40
40
40
20
20
10
10
ENDCHAR
STARTCHAR 0029
ENCODING 41
SWIDTH 285 0
DWIDTH 6 0
BBX 4 22 1 -5
BITMAP
80
80
40
40
20
20
20
20
20
10
10
10
10
20
20
20
20
20
40
40
80
80
ENDCHAR
STARTCHAR 002A
ENCODING 42
SWIDTH 428 0
DWIDTH 9 0
BBX 8 8 0 9
BITMAP
08
08
88
7F
08
14
22
22
ENDCHAR
STARTCHAR 002B
ENCODING 43
SWIDTH 523 0
DWIDTH 11 0
BBX 7 8 2 4
BITMAP
10
10
10
10
FE
10
10
10
ENDCHAR
STARTCHAR 002C
ENCODING 44
SWIDTH 190 0
DWIDTH 4 0
BBX 2 4 1 -3
BITMAP
C0
40
40
80
ENDCHAR
STARTCHAR 002D
ENCODING 45
SWIDTH 333 0
DWIDTH 7 0
BBX 4 1 2 5
BITMAP
F0
ENDCHAR
STARTCHAR 002E
ENCODING 46
SWIDTH 190 0
DWIDTH 4 0
BBX 2 1 1 0
BITMAP
C0
ENDCHAR
STARTCHAR 002F
ENCODING 47
SWIDTH 190 0
DWIDTH 4 0
BBX 4 20 0 -3
BITMAP
10
10
10
10
10
20
20
20
20
20
20
40
40
40
40
40
80
80
80
80
ENDCHAR
STARTCHAR 0030
ENCODING 48
SWIDTH 523 0
DWIDTH 11 0
BBX 9 16 1 0
BITMAP
1C00
2200
4100
4100
8080
8080
8080
8080
8080
8080
8080
8080
8100
4100
4100
3E00
ENDCHAR
STARTCHAR 0031
ENCODING 49
SWIDTH 285 0
DWIDTH 6 0
BBX 4 16 0 0
BITMAP
10
30
50
90
10
10
10
10
10
10
10
10
10
10
10
10
ENDCHAR
STARTCHAR 0032
ENCODING 50
SWIDTH 380 0
DWIDTH 8 0
BBX 8 16 0 0
BITMAP
78
84
02
02
02
02
02
04
04
08
08
10
20
20
40
7F
ENDCHAR
STARTCHAR 0033
ENCODING 51
SWIDTH 428 0
DWIDTH 9 0
BBX 7 16 1 0
BITMAP
78
84
02
02
02
02
04
38
4C
02
02
02
02
02
02
FC
ENDCHAR
STARTCHAR 0034
ENCODING 52
SWIDTH 476 0
DWIDTH 10 0
BBX 9 16 1 0
BITMAP
0400
0800
0800
1000
1000
2000
2200
4200
4200
8200
8200
FF80
0200
0200
0200
0200
ENDCHAR
STARTCHAR 0035
ENCODING 53
SWIDTH 428 0
DWIDTH 9 0
BBX 7 16 1 0
BITMAP
7E
40
40
80
80
80
80
F0
0C
02
02
02
02
02
02
FC
ENDCHAR
STARTCHAR 0036
ENCODING 54
SWIDTH 476 0
DWIDTH 10 0
BBX 8 16 1 0
BITMAP
0F
30
40
40
40
80
80
9C
E2
81
81
81
41
41
41
3E
ENDCHAR
STARTCHAR 0037
ENCODING 55
SWIDTH 380 0
DWIDTH 8 0
BBX 8 16 0 0
BITMAP
FF
01
02
02
02
04
04
08
08
08
10
10
10
20
20
20
ENDCHAR
STARTCHAR 0038
ENCODING 56
SWIDTH 523 0
DWIDTH 11 0
BBX 9 16 1 0
BITMAP
1C00
6300
4100
8080
8080
8100
4100
3200
2E00
4100
8080
8080
8080
8080
4100
3E00
ENDCHAR
STARTCHAR 0039
ENCODING 57
SWIDTH 476 0
DWIDTH 10 0
BBX 8 16 1 0
BITMAP
7C
82
82
82
81
81
81
47
39
01
01
02
02
02
0C
F0
ENDCHAR
STARTCHAR 003A
ENCODING 58
SWIDTH 190 0
DWIDTH 4 0
BBX 2 11 1 0
BITMAP
C0
00
00
00
00
00
00
00
00
00
C0
ENDCHAR
STARTCHAR 003B
ENCODING 59
SWIDTH 190 0
DWIDTH 4 0
BBX 2 14 1 -3
BITMAP
C0
00
00
00
00
00
00
00
00
00
C0
40
40
80
ENDCHAR
STARTCHAR 003C
ENCODING 60
SWIDTH 523 0
DWIDTH 11 0
BBX 7 8 2 4
BITMAP
02
0C
30
C0
C0
30
0C
02
ENDCHAR
STARTCHAR 003D
ENCODING 61
SWIDTH 523 0
DWIDTH 11 0
BBX 7 4 2 6
BITMAP
FE
00
00
FE
ENDCHAR
STARTCHAR 003E
ENCODING 62
SWIDTH 523 0
DWIDTH 11 0
BBX 7 8 2 4
BITMAP
80
40
38
06
06
18
60
80
ENDCHAR
STARTCHAR 003F
ENCODING 63
SWIDTH 380 0
DWIDTH 8 0
BBX 7 16 0 0
BITMAP
78
86
02
02
02
02
02
0C
10
10
10
10
10
00
00
10
ENDCHAR
STARTCHAR 0040
ENCODING 64
SWIDTH 761 0
DWIDTH 16 0
BBX 14 21 1 -5
BITMAP
07C0
1820
2010
4008
4704
88C4
8044
8044
8044
8044
87C4
8844
8844
8844
8844
87B8
4000
4000
2000
1820
07C0
ENDCHAR
STARTCHAR 0041
ENCODING 65
SWIDTH 571 0
DWIDTH 12 0
BBX 12 16 0 0
BITMAP
0400
0600
0600
0900
0900
0900
1080
1080
1080
2040
3FC0
2040
4020
4020
4020
8010
ENDCHAR
STARTCHAR 0042
ENCODING 66
SWIDTH 523 0
DWIDTH 11 0
BBX 9 16 2 0
BITMAP
FC00
8200
8100
8100
8100
8100
8100
8E00
F600
8100
8080
8080
8080
8100
8100
FE00
ENDCHAR
STARTCHAR 0043
ENCODING 67
SWIDTH 476 0
DWIDTH 10 0
BBX 9 16 1 0
BITMAP
0F00
3080
4000
4000
8000
8000
8000
8000
8000
8000
8000
8000
8000
4000
2000
1F80
ENDCHAR
STARTCHAR 0044
ENCODING 68
SWIDTH 571 0
DWIDTH 12 0
BBX 9 16 2 0
BITMAP
F800
8600
8100
8100
8080
8080
8080
8080
8080
8080
8080
8080
8080
8100
8200
FC00
ENDCHAR
STARTCHAR 0045
ENCODING 69
SWIDTH 476 0
DWIDTH 10 0
BBX 8 16 2 0
BITMAP
FE
80
80
80
80
80
80
80
FE
80
80
80
80
80
80
FF
ENDCHAR
STARTCHAR 0046
ENCODING 70
SWIDTH 476 0
DWIDTH 10 0
BBX 7 16 2 0
BITMAP
FE
80
80
80
80
80
80
80
FC
80
80
80
80
80
80
80
ENDCHAR
STARTCHAR 0047
ENCODING 71
SWIDTH 571 0
DWIDTH 12 0
BBX 9 16 1 0
BITMAP
0F80
3000
4000
4000
8000
8000
8000
8000
8080
8080
8080
8080
4080
4080
2080
1F80
ENDCHAR
STARTCHAR 0048
ENCODING 72
SWIDTH 619 0
DWIDTH 13 0
BBX 9 16 2 0
BITMAP
8080
8080
8080
8080
8080
8080
8080
8080
FF80
8080
8080
8080
8080
8080
8080
8080
ENDCHAR
STARTCHAR 0049
ENCODING 73
SWIDTH 190 0
DWIDTH 4 0
BBX 1 16 2 0
BITMAP
80
80
80
80
80
80
80
80
80
80
80
80
80
80
80
80
ENDCHAR
STARTCHAR 004A
ENCODING 74
SWIDTH 190 0
DWIDTH 4 0
BBX 2 20 0 -4
BITMAP
40
40
40
40
40
40
40
40
40
40
40
40
40
40
40
40
40
40
80
80
ENDCHAR
STARTCHAR 004B
ENCODING 75
SWIDTH 523 0
DWIDTH 11 0
BBX 9 16 2 0
BITMAP
8080
8100
8200
8200
8400
8800
9000
9000
F000
9000
8800
8400
8200
8200
8100
8080
ENDCHAR
STARTCHAR 004C
ENCODING 76
SWIDTH 428 0
DWIDTH 9 0
BBX 7 16 2 0
BITMAP
80
80
80
80
80
80
80
80
80
80
80
80
80
80
80
FE
ENDCHAR
STARTCHAR 004D
ENCODING 77
SWIDTH 761 0
DWIDTH 16 0
BBX 12 16 2 0
BITMAP
8010
8010
8030
C030
C050
A050
A050
9090
9090
8910
8910
8910
8610
8610
8010
8010
ENDCHAR
STARTCHAR 004E
ENCODING 78
SWIDTH 619 0
DWIDTH 13 0
BBX 9 16 2 0
BITMAP
8080
8080
C080
C080
A080
A080
9080
8880
8880
8480
8480
8280
8280
8180
8080
8080
ENDCHAR
STARTCHAR 004F
ENCODING 79
SWIDTH 571 0
DWIDTH 12 0
BBX 10 16 1 0
BITMAP
1E00
2100
4080
4040
8040
8040
8040
8040
8040
8040
8040
8040
8040
4080
4080
3F00
ENDCHAR
STARTCHAR 0050
ENCODING 80
SWIDTH 523 0
DWIDTH 11 0
BBX 8 16 2 0
BITMAP
F8
86
81
81
81
81
81
81
82
8C
F0
80
80
80
80
80
ENDCHAR
STARTCHAR 0051
ENCODING 81
SWIDTH 571 0
DWIDTH 12 0
BBX 10 18 1 -2
BITMAP
1E00
2100
4080
4040
8040
8040
8040
8040
8040
8040
8040
8040
8040
4080
4080
3F00
0E00
01C0
ENDCHAR
STARTCHAR 0052
ENCODING 82
SWIDTH 571 0
DWIDTH 12 0
BBX 9 16 2 0
BITMAP
F800
8600
8100
8100
8100
8100
8100
8200
FC00
8800
8800
8400
8200
8100
8100
8080
ENDCHAR
STARTCHAR 0053
ENCODING 83
SWIDTH 428 0
DWIDTH 9 0
BBX 7 16 1 0
BITMAP
3E
40
80
80
80
80
80
60
18
06
02
02
02
02
02
FC
ENDCHAR
STARTCHAR 0054
ENCODING 84
SWIDTH 476 0
DWIDTH 10 0
BBX 10 16 0 0
BITMAP
FFC0
0400
0400
0400
0400
0400
0400
0400
0400
0400
0400
0400
0400
0400
0400
0400
ENDCHAR
STARTCHAR 0055
ENCODING 85
SWIDTH 619 0
DWIDTH 13 0
BBX 9 16 2 0
BITMAP
8080
8080
8080
8080
8080
8080
8080
8080
8080
8080
8080
8080
8080
8080
8100
7E00
ENDCHAR
STARTCHAR 0056
ENCODING 86
SWIDTH 571 0
DWIDTH 12 0
BBX 11 16 0 0
BITMAP
8020
8020
4020
4020
4040
2040
2040
2080
1080
1080
1100
0900
0900
0A00
0600
0400
ENDCHAR
STARTCHAR 0057
ENCODING 87
SWIDTH 904 0
DWIDTH 19 0
BBX 17 16 1 0
BITMAP
808080
808080
818080
814100
814100
424100
424100
422200
422200
242200
241200
241400
141400
181400
180800
180800
ENDCHAR
STARTCHAR 0058
ENCODING 88
SWIDTH 523 0
DWIDTH 11 0
BBX 11 16 0 0
BITMAP
8020
4040
2040
2080
1100
1100
0A00
0400
0400
0A00
0900
1100
2080
2080
4040
C020
ENDCHAR
STARTCHAR 0059
ENCODING 89
SWIDTH 476 0
DWIDTH 10 0
BBX 10 16 0 0
BITMAP
8040
8040
4080
4080
2100
1100
1200
0C00
0400
0400
0400
0400
0400
0400
0400
0400
ENDCHAR
STARTCHAR 005A
ENCODING 90
SWIDTH 476 0
DWIDTH 10 0
BBX 8 16 1 0
BITMAP
FF
01
01
02
04
04
08
08
10
10
20
20
40
40
80
FF
ENDCHAR
STARTCHAR 005B
ENCODING 91
SWIDTH 285 0
DWIDTH 6 0
BBX 4 22 2 -5
BITMAP
F0
80
80
80
80
80
80
80
80
80
80
80
80
80
80
80
80
80
80
80
80
F0
ENDCHAR
STARTCHAR 005C
ENCODING 92
SWIDTH 190 0
DWIDTH 4 0
BBX 4 20 0 -3
BITMAP
80
80
80
40
40
40
40
40
40
20
20
20
20
20
10
10
10
10
10
10
ENDCHAR
STARTCHAR 005D
ENCODING 93
SWIDTH 285 0
DWIDTH 6 0
BBX 4 22 0 -5
BITMAP
F0
10
10
10
10
10
10
10
10
10
10
10
10
10
10
10
10
10
10
10
10
F0
ENDCHAR
STARTCHAR 005E
ENCODING 94
SWIDTH 523 0
DWIDTH 11 0
BBX 8 8 1 8
BITMAP
08
18
14
24
22
42
41
81
ENDCHAR
STARTCHAR 005F
ENCODING 95
SWIDTH 476 0
DWIDTH 10 0
BBX 8 1 1 -1
BITMAP
FF
ENDCHAR
STARTCHAR 0060
ENCODING 96
SWIDTH 380 0
DWIDTH 8 0
BBX 3 4 4 13
BITMAP
80
40
40
20
ENDCHAR
STARTCHAR 0061
ENCODING 97
SWIDTH 428 0
DWIDTH 9 0
BBX 7 12 1 0
BITMAP
30
CC
04
02
02
02
7E
82
82
82
86
7A
ENDCHAR
STARTCHAR 0062
ENCODING 98
SWIDTH 476 0
DWIDTH 10 0
BBX 7 17 2 0
BITMAP
80
80
80
80
80
B0
C8
84
82
82
82
82
82
82
84
84
F8
ENDCHAR
STARTCHAR 0063
ENCODING 99
SWIDTH 333 0
DWIDTH 7 0
BBX 6 12 1 0
BITMAP
1C
60
40
80
80
80
80
80
80
80
40
3C
ENDCHAR
STARTCHAR 0064
ENCODING 100
SWIDTH 476 0
DWIDTH 10 0
BBX 7 17 1 0
BITMAP
02
02
02
02
02
1E
22
42
82
82
82
82
82
82
82
42
3E
ENDCHAR
STARTCHAR 0065
ENCODING 101
SWIDTH 428 0
DWIDTH 9 0
BBX 7 12 1 0
BITMAP
18
64
82
82
82
82
FE
80
80
80
40
3E
ENDCHAR
STARTCHAR 0066
ENCODING 102
SWIDTH 285 0
DWIDTH 6 0
BBX 6 17 0 0
BITMAP
1C
20
20
20
20
FC
20
20
20
20
20
20
20
20
20
20
20
ENDCHAR
STARTCHAR 0067
ENCODING 103
SWIDTH 476 0
DWIDTH 10 0
BBX 7 17 1 -5
BITMAP
1C
22
42
82
82
82
82
82
82
82
42
3E
02
02
02
04
78
ENDCHAR
STARTCHAR 0068
ENCODING 104
SWIDTH 476 0
DWIDTH 10 0
BBX 6 17 2 0
BITMAP
80
80
80
80
80
B0
CC
84
84
84
84
84
84
84
84
84
84
ENDCHAR
STARTCHAR 0069
ENCODING 105
SWIDTH 190 0
DWIDTH 4 0
BBX 2 16 1 0
BITMAP
80
C0
00
00
00
80
80
80
80
80
80
80
80
80
80
80
ENDCHAR
STARTCHAR 006A
ENCODING 106
SWIDTH 190 0
DWIDTH 4 0
BBX 3 21 0 -5
BITMAP
40
60
00
00
00
40
40
40
40
40
40
40
40
40
40
40
40
40
40
80
80
ENDCHAR
STARTCHAR 006B
ENCODING 107
SWIDTH 428 0
DWIDTH 9 0
BBX 7 17 2 0
BITMAP
80
80
80
80
80
82
84
88
88
90
A0
E0
90
90
88
84
82
ENDCHAR
STARTCHAR 006C
ENCODING 108
SWIDTH 190 0
DWIDTH 4 0
BBX 1 17 1 0
BITMAP
80
80
80
80
80
80
80
80
80
80
80
80
80
80
80
80
80
ENDCHAR
STARTCHAR 006D
ENCODING 109
SWIDTH 714 0
DWIDTH 15 0
BBX 12 12 2 0
BITMAP
30C0
CB20
8410
8410
8410
8410
8410
8410
8410
8410
8410
8410
ENDCHAR
STARTCHAR 006E
ENCODING 110
SWIDTH 476 0
DWIDTH 10 0
BBX 6 12 2 0
BITMAP
30
CC
84
84
84
84
84
84
84
84
84
84
ENDCHAR
STARTCHAR 006F
ENCODING 111
SWIDTH 476 0
DWIDTH 10 0
BBX 8 12 1 0
BITMAP
18
64
82
82
81
81
81
81
81
82
42
3C
ENDCHAR
STARTCHAR 0070
ENCODING 112
SWIDTH 476 0
DWIDTH 10 0
BBX 7 17 2 -5
BITMAP
30
C8
84
82
82
82
82
82
82
84
84
F8
80
80
80
80
80
ENDCHAR
STARTCHAR 0071
ENCODING 113
SWIDTH 476 0
DWIDTH 10 0
BBX 7 17 1 -5
BITMAP
1C
22
42
82
82
82
82
82
82
82
42
3E
02
02
02
02
02
ENDCHAR
STARTCHAR 0072
ENCODING 114
SWIDTH 285 0
DWIDTH 6 0
BBX 4 11 2 0
BITMAP
F0
80
80
80
80
80
80
80
80
80
80
ENDCHAR
STARTCHAR 0073
ENCODING 115
SWIDTH 380 0
DWIDTH 8 0
BBX 6 12 1 0
BITMAP
38
40
80
80
80
C0
38
04
04
04
04
F8
ENDCHAR
STARTCHAR 0074
ENCODING 116
SWIDTH 285 0
DWIDTH 6 0
BBX 6 16 0 0
BITMAP
20
20
20
20
FC
20
20
20
20
20
20
20
20
20
20
1C
ENDCHAR
STARTCHAR 0075
ENCODING 117
SWIDTH 476 0
DWIDTH 10 0
BBX 7 11 1 0
BITMAP
82
82
82
82
82
82
82
82
82
42
7E
ENDCHAR
STARTCHAR 0076
ENCODING 118
SWIDTH 428 0
DWIDTH 9 0
BBX 9 11 0 0
BITMAP
8080
4100
4100
4100
2200
2200
2200
1400
1400
1400
0800
ENDCHAR
STARTCHAR 0077
ENCODING 119
SWIDTH 714 0
DWIDTH 15 0
BBX 14 11 1 0
BITMAP
8204
8508
8508
8508
4490
4890
4890
4890
3060
3060
3060
ENDCHAR
STARTCHAR 0078
ENCODING 120
SWIDTH 380 0
DWIDTH 8 0
BBX 8 11 0 0
BITMAP
C1
42
24
14
18
08
18
24
22
42
81
ENDCHAR
STARTCHAR 0079
ENCODING 121
SWIDTH 428 0
DWIDTH 9 0
BBX 9 16 0 -5
BITMAP
8080
4100
4100
4100
2200
2200
2200
1400
1400
1400
0800
0800
0800
1000
1000
1000
ENDCHAR
STARTCHAR 007A
ENCODING 122
SWIDTH 380 0
DWIDTH 8 0
BBX 6 11 1 0
BITMAP
FC
08
08
10
10
20
20
40
40
80
FC
ENDCHAR
STARTCHAR 007B
ENCODING 123
SWIDTH 285 0
DWIDTH 6 0
BBX 7 22 0 -5
BITMAP
1E
20
20
20
20
20
20
20
20
20
C0
20
20
20
20
20
20
20
20
20
10
0E
ENDCHAR
STARTCHAR 007C
ENCODING 124
SWIDTH 190 0
DWIDTH 4 0
BBX 1 22 2 -5
BITMAP
80
80
80
80
80
80
80
80
80
80
80
80
80
80
80
80
80
80
80
80
80
80
ENDCHAR
STARTCHAR 007D
ENCODING 125
SWIDTH 285 0
DWIDTH 6 0
BBX 6 22 0 -5
BITMAP
E0
10
10
10
10
10
10
10
10
10
0C
10
10
10
10
10
10
10
10
10
10
E0
ENDCHAR
STARTCHAR 007E
ENCODING 126
SWIDTH 523 0
DWIDTH 11 0
BBX 7 2 2 7
BITMAP
E2
9E
ENDCHAR
STARTCHAR 00A0
ENCODING 160
SWIDTH 190 0
DWIDTH 4 0
BBX 0 0 0 0
BITMAP
ENDCHAR
STARTCHAR 00A1
ENCODING 161
SWIDTH 190 0
DWIDTH 4 0
BBX 2 15 1 -4
BITMAP
C0
00
00
40
40
40
40
40
40
40
40
40
40
40
40
ENDCHAR
STARTCHAR 00A2
ENCODING 162
SWIDTH 333 0
DWIDTH 7 0
BBX 6 17 1 -3
BITMAP
10
10
1C
60
40
80
80
80
80
80
80
80
40
3C
10
10
10
ENDCHAR
STARTCHAR 00A3
ENCODING 163
SWIDTH 523 0
DWIDTH 11 0
BBX 9 16 1 0
BITMAP
0F80
1000
2000
2000
2000
2000
2000
2000
FF00
2000
2000
2000
2000
2000
2000
FF80
ENDCHAR
STARTCHAR 00A4
ENCODING 164
SWIDTH 523 0
DWIDTH 11 0
BBX 9 9 1 3
BITMAP
8180
7D00
4200
4100
4100
4200
2200
DD00
8080
ENDCHAR
STARTCHAR 00A5
ENCODING 165
SWIDTH 523 0
DWIDTH 11 0
BBX 11 16 0 0
BITMAP
8020
4040
4040
2080
2100
1100
0A00
0A00
3F80
0400
0400
0400
3F80
0400
0400
0400
ENDCHAR
STARTCHAR 00A6
ENCODING 166
SWIDTH 190 0
DWIDTH 4 0
BBX 1 22 2 -5
BITMAP
80
80
80
80
80
80
80
80
00
00
00
00
00
80
80
80
80
80
80
80
80
80
ENDCHAR
STARTCHAR 00A7
ENCODING 167
SWIDTH 428 0
DWIDTH 9 0
BBX 6 16 1 0
BITMAP
3C
40
80
80
80
60
98
84
84
44
3C
04
04
04
04
F8
ENDCHAR
STARTCHAR 00A8
ENCODING 168
SWIDTH 380 0
DWIDTH 8 0
BBX 5 2 4 14
BITMAP
90
98
ENDCHAR
STARTCHAR 00A9
ENCODING 169
SWIDTH 857 0
DWIDTH 18 0
BBX 16 16 1 0
BITMAP
07E0
1810
200C
4004
43C2
8402
8801
8801
8801
8801
8801
8622
41C2
2004
1008
0FF0
ENDCHAR
STARTCHAR 00AA
ENCODING 170
SWIDTH 380 0
DWIDTH 8 0
BBX 5 10 1 6
BITMAP
F0
08
08
08
18
E8
88
88
88
78
ENDCHAR
STARTCHAR 00AB
ENCODING 171
SWIDTH 333 0
DWIDTH 7 0
BBX 6 9 1 1
BITMAP
2C
48
48
90
90
50
48
28
24
ENDCHAR
STARTCHAR 00AC
ENCODING 172
SWIDTH 619 0
DWIDTH 13 0
BBX 10 6 2 2
BITMAP
FFC0
0040
0040
0040
0040
0040
ENDCHAR
STARTCHAR 00AD
ENCODING 173
SWIDTH 333 0
DWIDTH 7 0
BBX 4 1 2 5
BITMAP
F0
ENDCHAR
STARTCHAR 00AE
ENCODING 174
SWIDTH 761 0
DWIDTH 16 0
BBX 13 13 1 3
BITMAP
0780
1860
2010
4708
4888
8888
8888
8F08
8888
4888
4010
3020
0FC0
ENDCHAR
STARTCHAR 00AF
ENCODING 175
SWIDTH 380 0
DWIDTH 8 0
BBX 5 1 4 14
BITMAP
F8
ENDCHAR
STARTCHAR 00B0
ENCODING 176
SWIDTH 476 0
DWIDTH 10 0
BBX 7 7 1 9
BITMAP
38
44
82
82
82
42
3C
ENDCHAR
STARTCHAR 00B1
ENCODING 177
SWIDTH 523 0
DWIDTH 11 0
BBX 7 11 2 0
BITMAP
10
10
10
FE
10
10
10
10
00
00
FE
ENDCHAR
STARTCHAR 00B2
ENCODING 178
SWIDTH 333 0
DWIDTH 7 0
BBX 5 11 1 6
BITMAP
F0
08
08
08
10
10
20
20
40
80
F8
ENDCHAR
STARTCHAR 00B3
ENCODING 179
SWIDTH 333 0
DWIDTH 7 0
BBX 5 11 1 6
BITMAP
F0
08
08
08
10
70
08
08
08
08
F0
ENDCHAR
STARTCHAR 00B4
ENCODING 180
SWIDTH 380 0
DWIDTH 8 0
BBX 2 4 6 13
BITMAP
40
40
80
80
ENDCHAR
STARTCHAR 00B5
ENCODING 181
SWIDTH 476 0
DWIDTH 10 0
BBX 7 16 1 -5
BITMAP
82
82
82
82
82
82
82
82
82
82
FE
80
80
80
80
80
ENDCHAR
STARTCHAR 00B6
ENCODING 182
SWIDTH 523 0
DWIDTH 11 0
BBX 8 16 1 0
BITMAP
1D
7D
FD
FD
FD
FD
FD
FD
7D
7D
1D
05
05
05
05
05
ENDCHAR
STARTCHAR 00B7
ENCODING 183
SWIDTH 190 0
DWIDTH 4 0
BBX 2 2 1 5
BITMAP
80
C0
ENDCHAR
STARTCHAR 00B8
ENCODING 184
SWIDTH 380 0
DWIDTH 8 0
BBX 3 4 5 -4
BITMAP
40
60
20
E0
ENDCHAR
STARTCHAR 00B9
ENCODING 185
SWIDTH 333 0
DWIDTH 7 0
BBX 5 11 1 6
BITMAP
20
60
A0
20
20
20
20
20
20
20
F8
ENDCHAR
STARTCHAR 00BA
ENCODING 186
SWIDTH 380 0
DWIDTH 8 0
BBX 6 10 1 6
BITMAP
30
CC
84
84
84
84
84
84
84
78
ENDCHAR
STARTCHAR 00BB
ENCODING 187
SWIDTH 333 0
DWIDTH 7 0
BBX 5 9 1 1
BITMAP
90
90
48
48
48
48
90
90
A0
ENDCHAR
STARTCHAR 00BC
ENCODING 188
SWIDTH 761 0
DWIDTH 16 0
BBX 15 18 1 -1
BITMAP
2020
6020
A040
2040
2040
2080
2080
2100
2108
2210
FA10
0224
0424
0444
0844
08FE
0804
1004
ENDCHAR
STARTCHAR 00BD
ENCODING 189
SWIDTH 761 0
DWIDTH 16 0
BBX 14 18 1 -1
BITMAP
2020
6020
A040
2040
2040
2080
2080
2100
2178
2204
FA04
0204
0408
0408
0810
0810
0820
107C
ENDCHAR
STARTCHAR 00BE
ENCODING 190
SWIDTH 761 0
DWIDTH 16 0
BBX 15 18 1 -1
BITMAP
F020
0820
0840
0840
1040
7080
0880
0900
0908
0A10
F210
0224
0424
0444
0844
08FE
0804
1004
ENDCHAR
STARTCHAR 00BF
ENCODING 191
SWIDTH 380 0
DWIDTH 8 0
BBX 7 15 1 -4
BITMAP
10
00
00
10
10
10
10
30
40
80
80
80
80
80
7E
ENDCHAR
STARTCHAR 00C0
ENCODING 192
SWIDTH 571 0
DWIDTH 12 0
BBX 12 20 0 0
BITMAP
0800
0400
0400
0000
0400
0600
0600
0900
0900
0900
1080
1080
1080
2040
3FC0
2040
4020
4020
4020
8010
ENDCHAR
STARTCHAR 00C1
ENCODING 193
SWIDTH 571 0
DWIDTH 12 0
BBX 12 20 0 0
BITMAP
0100
0200
0200
0000
0400
0600
0600
0900
0900
0900
1080
1080
1080
2040
3FC0
2040
4020
4020
4020
8010
ENDCHAR
STARTCHAR 00C2
ENCODING 194
SWIDTH 571 0
DWIDTH 12 0
BBX 12 20 0 0
BITMAP
0600
0A00
0900
1000
0400
0600
0600
0900
0900
0900
1080
1080
1080
2040
3FC0
2040
4020
4020
4020
8010
ENDCHAR
STARTCHAR 00C3
ENCODING 195
SWIDTH 571 0
DWIDTH 12 0
BBX 12 19 0 0
BITMAP
1F80
0000
0000
0400
0600
0600
0900
0900
0900
1080
1080
1080
2040
3FC0
2040
4020
4020
4020
8010
ENDCHAR
STARTCHAR 00C4
ENCODING 196
SWIDTH 571 0
DWIDTH 12 0
BBX 12 19 0 0
BITMAP
1900
0000
0000
0400
0600
0600
0900
0900
0900
1080
1080
1080
2040
3FC0
2040
4020
4020
4020
8010
ENDCHAR
STARTCHAR 00C5
ENCODING 197
SWIDTH 571 0
DWIDTH 12 0
BBX 12 21 0 0
BITMAP
0600
0900
0900
0600
0000
0400
0600
0600
0900
0900
0900
1080
1080
1080
2040
3FC0
2040
4020
4020
4020
8010
ENDCHAR
STARTCHAR 00C6
ENCODING 198
SWIDTH 761 0
DWIDTH 16 0
BBX 16 16 0 0
BITMAP
03FF
0480
0480
0880
0880
0880
1080
1080
10FE
2080
3F80
2080
4080
4080
4080
807F
ENDCHAR
STARTCHAR 00C7
ENCODING 199
SWIDTH 476 0
DWIDTH 10 0
BBX 9 20 1 -4
BITMAP
0F00
3080
4000
4000
8000
8000
8000
8000
8000
8000
8000
8000
8000
4000
2000
1F80
0400
0600
0100
0E00
ENDCHAR
STARTCHAR 00C8
ENCODING 200
SWIDTH 476 0
DWIDTH 10 0
BBX 8 20 2 0
BITMAP
20
10
10
00
FE
80
80
80
80
80
80
80
FE
80
80
80
80
80
80
FF
ENDCHAR
STARTCHAR 00C9
ENCODING 201
SWIDTH 476 0
DWIDTH 10 0
BBX 8 20 2 0
BITMAP
04
08
08
00
FE
80
80
80
80
80
80
80
FE
80
80
80
80
80
80
FF
ENDCHAR
STARTCHAR 00CA
ENCODING 202
SWIDTH 476 0
DWIDTH 10 0
BBX 8 20 2 0
BITMAP
10
28
64
00
FE
80
80
80
80
80
80
80
FE
80
80
80
80
80
80
FF
ENDCHAR
STARTCHAR 00CB
ENCODING 203
SWIDTH 476 0
DWIDTH 10 0
BBX 8 19 2 0
BITMAP
64
00
00
FE
80
80
80
80
80
80
80
FE
80
80
80
80
80
80
FF
ENDCHAR
STARTCHAR 00CC
ENCODING 204
SWIDTH 190 0
DWIDTH 4 0
BBX 2 20 0 0
BITMAP
80
40
40
00
40
40
40
40
40
40
40
40
40
40
40
40
40
40
40
40
ENDCHAR
STARTCHAR 00CD
ENCODING 205
SWIDTH 190 0
DWIDTH 4 0
BBX 2 20 2 0
BITMAP
40
80
80
00
80
80
80
80
80
80
80
80
80
80
80
80
80
80
80
80
ENDCHAR
STARTCHAR 00CE
ENCODING 206
SWIDTH 190 0
DWIDTH 4 0
BBX 5 20 0 0
BITMAP
60
50
90
08
20
20
20
20
20
20
20
20
20
20
20
20
20
20
20
20
ENDCHAR
STARTCHAR 00CF
ENCODING 207
SWIDTH 190 0
DWIDTH 4 0
BBX 5 19 0 0
BITMAP
98
00
00
20
20
20
20
20
20
20
20
20
20
20
20
20
20
20
20
ENDCHAR
STARTCHAR 00D0
ENCODING 208
SWIDTH 571 0
DWIDTH 12 0
BBX 11 16 0 0
BITMAP
3E00
2180
2040
2040
2020
2020
2020
2020
FC20
2020
2020
2020
2020
2040
2080
3F00
ENDCHAR
STARTCHAR 00D1
ENCODING 209
SWIDTH 619 0
DWIDTH 13 0
BBX 9 19 2 0
BITMAP
3E00
0000
0000
8080
8080
C080
C080
A080
A080
9080
8880
8880
8480
8480
8280
8280
8180
8080
8080
ENDCHAR
STARTCHAR 00D2
ENCODING 210
SWIDTH 571 0
DWIDTH 12 0
BBX 10 20 1 0
BITMAP
1000
0800
0800
0000
1E00
2100
4080
4040
8040
8040
8040
8040
8040
8040
8040
8040
8040
4080
4080
3F00
ENDCHAR
STARTCHAR 00D3
ENCODING 211
SWIDTH 571 0
DWIDTH 12 0
BBX 10 20 1 0
BITMAP
0200
0400
0400
0000
1E00
2100
4080
4040
8040
8040
8040
8040
8040
8040
8040
8040
8040
4080
4080
3F00
ENDCHAR
STARTCHAR 00D4
ENCODING 212
SWIDTH 571 0
DWIDTH 12 0
BBX 10 20 1 0
BITMAP
0C00
0A00
1300
0000
1E00
2100
4080
4040
8040
8040
8040
8040
8040
8040
8040
8040
8040
4080
4080
3F00
ENDCHAR
STARTCHAR 00D5
ENCODING 213
SWIDTH 571 0
DWIDTH 12 0
BBX 10 19 1 0
BITMAP
3F00
0000
0000
1E00
2100
4080
4040
8040
8040
8040
8040
8040
8040
8040
8040
8040
4080
4080
3F00
ENDCHAR
STARTCHAR 00D6
ENCODING 214
SWIDTH 571 0
DWIDTH 12 0
BBX 10 19 1 0
BITMAP
1300
0000
0000
1E00
2100
4080
4040
8040
8040
8040
8040
8040
8040
8040
8040
8040
4080
4080
3F00
ENDCHAR
STARTCHAR 00D7
ENCODING 215
SWIDTH 476 0
DWIDTH 10 0
BBX 8 8 1 4
BITMAP
81
42
24
18
18
24
42
81
ENDCHAR
STARTCHAR 00D8
ENCODING 216
SWIDTH 571 0
DWIDTH 12 0
BBX 10 16 1 0
BITMAP
1E40
2140
4080
4140
8140
8240
8240
8440
8840
8840
9040
9040
A040
4080
4080
BF00
ENDCHAR
STARTCHAR 00D9
ENCODING 217
SWIDTH 619 0
DWIDTH 13 0
BBX 9 20 2 0
BITMAP
3000
1000
0800
0000
8080
8080
8080
8080
8080
8080
8080
8080
8080
8080
8080
8080
8080
8080
8100
7E00
ENDCHAR
STARTCHAR 00DA
ENCODING 218
SWIDTH 619 0
DWIDTH 13 0
BBX 9 20 2 0
BITMAP
0400
0400
0800
0000
8080
8080
8080
8080
8080
8080
8080
8080
8080
8080
8080
8080
8080
8080
8100
7E00
ENDCHAR
STARTCHAR 00DB
ENCODING 219
SWIDTH 619 0
DWIDTH 13 0
BBX 9 20 2 0
BITMAP
0800
1400
2600
0000
8080
8080
8080
8080
8080
8080
8080
8080
8080
8080
8080
8080
8080
8080
8100
7E00
ENDCHAR
STARTCHAR 00DC
ENCODING 220
SWIDTH 619 0
DWIDTH 13 0
BBX 9 19 2 0
BITMAP
2200
0000
0000
8080
8080
8080
8080
8080
8080
8080
8080
8080
8080
8080
8080
8080
8080
8100
7E00
ENDCHAR
STARTCHAR 00DD
ENCODING 221
SWIDTH 476 0
DWIDTH 10 0
BBX 10 20 0 0
BITMAP
0200
0400
0400
0000
8040
8040
4080
4080
2100
1100
1200
0C00
0400
0400
0400
0400
0400
0400
0400
0400
ENDCHAR
STARTCHAR 00DE
ENCODING 222
SWIDTH 523 0
DWIDTH 11 0
BBX 8 16 2 0
BITMAP
80
80
80
FC
82
81
81
81
81
81
81
82
FC
80
80
80
ENDCHAR
STARTCHAR 00DF
ENCODING 223
SWIDTH 571 0
DWIDTH 12 0
BBX 11 17 0 0
BITMAP
0F80
1040
2040
2040
2040
21C0
E200
2400
2400
2400
2200
21C0
2020
2020
2020
2020
27C0
ENDCHAR
STARTCHAR 00E0
ENCODING 224
SWIDTH 428 0
DWIDTH 9 0
BBX 7 17 1 0
BITMAP
40
20
20
10
00
30
CC
04
02
02
02
7E
82
82
82
86
7A
ENDCHAR
STARTCHAR 00E1
ENCODING 225
SWIDTH 428 0
DWIDTH 9 0
BBX 7 17 1 0
BITMAP
08
08
10
10
00
30
CC
04
02
02
02
7E
82
82
82
86
7A
ENDCHAR
STARTCHAR 00E2
ENCODING 226
SWIDTH 428 0
DWIDTH 9 0
BBX 7 17 1 0
BITMAP
10
28
28
44
00
30
CC
04
02
02
02
7E
82
82
82
86
7A
ENDCHAR
STARTCHAR 00E3
ENCODING 227
SWIDTH 428 0
DWIDTH 9 0
BBX 7 16 1 0
BITMAP
74
08
00
00
30
CC
04
02
02
02
7E
82
82
82
86
7A
ENDCHAR
STARTCHAR 00E4
ENCODING 228
SWIDTH 428 0
DWIDTH 9 0
BBX 7 16 1 0
BITMAP
44
4C
00
00
30
CC
04
02
02
02
7E
82
82
82
86
7A
ENDCHAR
STARTCHAR 00E5
ENCODING 229
SWIDTH 428 0
DWIDTH 9 0
BBX 7 17 1 0
BITMAP
38
44
48
30
00
30
CC
04
02
02
02
7E
82
82
82
86
7A
ENDCHAR
STARTCHAR 00E6
ENCODING 230
SWIDTH 714 0
DWIDTH 15 0
BBX 13 12 1 0
BITMAP
30C0
CD30
0210
0208
0208
0208
7FF8
8200
8200
8200
8500
78F0
ENDCHAR
STARTCHAR 00E7
ENCODING 231
SWIDTH 333 0
DWIDTH 7 0
BBX 6 16 1 -4
BITMAP
1C
60
40
80
80
80
80
80
80
80
40
3C
10
18
08
38
ENDCHAR
STARTCHAR 00E8
ENCODING 232
SWIDTH 428 0
DWIDTH 9 0
BBX 7 17 1 0
BITMAP
20
20
20
10
00
18
64
82
82
82
82
FE
80
80
80
40
3E
ENDCHAR
STARTCHAR 00E9
ENCODING 233
SWIDTH 428 0
DWIDTH 9 0
BBX 7 17 1 0
BITMAP
0C
08
08
10
00
18
64
82
82
82
82
FE
80
80
80
40
3E
ENDCHAR
STARTCHAR 00EA
ENCODING 234
SWIDTH 428 0
DWIDTH 9 0
BBX 7 17 1 0
BITMAP
10
28
28
44
00
18
64
82
82
82
82
FE
80
80
80
40
3E
ENDCHAR
STARTCHAR 00EB
ENCODING 235
SWIDTH 428 0
DWIDTH 9 0
BBX 7 16 1 0
BITMAP
44
64
00
00
18
64
82
82
82
82
FE
80
80
80
40
3E
ENDCHAR
STARTCHAR 00EC
ENCODING 236
SWIDTH 190 0
DWIDTH 4 0
BBX 2 17 0 0
BITMAP
80
80
40
40
00
00
40
40
40
40
40
40
40
40
40
40
40
ENDCHAR
STARTCHAR 00ED
ENCODING 237
SWIDTH 190 0
DWIDTH 4 0
BBX 2 17 2 0
BITMAP
40
80
80
80
00
00
80
80
80
80
80
80
80
80
80
80
80
ENDCHAR
STARTCHAR 00EE
ENCODING 238
SWIDTH 190 0
DWIDTH 4 0
BBX 4 17 0 0
BITMAP
40
60
90
90
00
00
40
40
40
40
40
40
40
40
40
40
40
ENDCHAR
STARTCHAR 00EF
ENCODING 239
SWIDTH 190 0
DWIDTH 4 0
BBX 4 16 0 0
BITMAP
90
90
00
00
00
40
40
40
40
40
40
40
40
40
40
40
ENDCHAR
STARTCHAR 00F0
ENCODING 240
SWIDTH 476 0
DWIDTH 10 0
BBX 8 17 1 0
BITMAP
30
10
0E
74
04
1A
66
82
82
81
81
81
81
81
82
42
3C
ENDCHAR
STARTCHAR 00F1
ENCODING 241
SWIDTH 476 0
DWIDTH 10 0
BBX 6 16 2 0
BITMAP
E4
18
00
00
30
CC
84
84
84
84
84
84
84
84
84
84
ENDCHAR
STARTCHAR 00F2
ENCODING 242
SWIDTH 476 0
DWIDTH 10 0
BBX 8 17 1 0
BITMAP
20
20
10
10
00
18
64
82
82
81
81
81
81
81
82
42
3C
ENDCHAR
STARTCHAR 00F3
ENCODING 243
SWIDTH 476 0
DWIDTH 10 0
BBX 8 17 1 0
BITMAP
04
08
08
10
00
18
64
82
82
81
81
81
81
81
82
42
3C
ENDCHAR
STARTCHAR 00F4
ENCODING 244
SWIDTH 476 0
DWIDTH 10 0
BBX 8 17 1 0
BITMAP
10
28
24
44
00
18
64
82
82
81
81
81
81
81
82
42
3C
ENDCHAR
STARTCHAR 00F5
ENCODING 245
SWIDTH 476 0
DWIDTH 10 0
BBX 8 16 1 0
BITMAP
72
0C
00
00
18
64
82
82
81
81
81
81
81
82
42
3C
ENDCHAR
STARTCHAR 00F6
ENCODING 246
SWIDTH 476 0
DWIDTH 10 0
BBX 8 16 1 0
BITMAP
24
64
00
00
18
64
82
82
81
81
81
81
81
82
42
3C
ENDCHAR
STARTCHAR 00F7
ENCODING 247
SWIDTH 523 0
DWIDTH 11 0
BBX 7 8 2 4
BITMAP
10
00
00
00
FE
00
00
10
ENDCHAR
STARTCHAR 00F8
ENCODING 248
SWIDTH 476 0
DWIDTH 10 0
BBX 8 12 1 0
BITMAP
19
66
82
86
89
89
91
91
A1
C2
42
BC
ENDCHAR
STARTCHAR 00F9
ENCODING 249
SWIDTH 476 0
DWIDTH 10 0
BBX 7 17 1 0
BITMAP
20
20
10
10
00
00
82
82
82
82
82
82
82
82
82
42
7E
ENDCHAR
STARTCHAR 00FA
ENCODING 250
SWIDTH 476 0
DWIDTH 10 0
BBX 7 17 1 0
BITMAP
04
08
08
10
00
00
82
82
82
82
82
82
82
82
82
42
7E
ENDCHAR
STARTCHAR 00FB
ENCODING 251
SWIDTH 476 0
DWIDTH 10 0
BBX 7 17 1 0
BITMAP
10
28
24
44
00
00
82
82
82
82
82
82
82
82
82
42
7E
ENDCHAR
STARTCHAR 00FC
ENCODING 252
SWIDTH 476 0
DWIDTH 10 0
BBX 7 16 1 0
BITMAP
24
64
00
00
00
82
82
82
82
82
82
82
82
82
42
7E
ENDCHAR
STARTCHAR 00FD
ENCODING 253
SWIDTH 428 0
DWIDTH 9 0
BBX 9 22 0 -5
BITMAP
0600
0400
0400
0800
0000
0000
8080
4100
4100
4100
2200
2200
2200
1400
1400
1400
0800
0800
0800
1000
1000
1000
ENDCHAR
STARTCHAR 00FE
ENCODING 254
SWIDTH 476 0
DWIDTH 10 0
BBX 7 22 2 -5
BITMAP
80
80
80
80
80
B0
C8
84
82
82
82
82
82
82
84
84
F8
80
80
80
80
80
ENDCHAR
STARTCHAR 00FF
ENCODING 255
SWIDTH 428 0
DWIDTH 9 0
BBX 9 21 0 -5
BITMAP
2200
2200
0000
0000
0000
8080
4100
4100
4100
2200
2200
2200
1400
1400
1400
0800
0800
0800
1000
1000
1000
ENDCHAR
STARTCHAR 0100
ENCODING 256
SWIDTH 571 0
DWIDTH 12 0
BBX 12 19 0 0
BITMAP
1F00
0000
0000
0400
0600
0600
0900
0900
0900
1080
1080
1080
2040
3FC0
2040
4020
4020
4020
8010
ENDCHAR
STARTCHAR 0101
ENCODING 257
SWIDTH 428 0
DWIDTH 9 0
BBX 7 15 1 0
BITMAP
7C
00
00
30
CC
04
02
02
02
7E
82
82
82
86
7A
ENDCHAR
STARTCHAR 0102
ENCODING 258
SWIDTH 571 0
DWIDTH 12 0
BBX 12 20 0 0
BITMAP
1080
1100
0F00
0000
0400
0600
0600
0900
0900
0900
1080
1080
1080
2040
3FC0
2040
4020
4020
4020
8010
ENDCHAR
STARTCHAR 0103
ENCODING 259
SWIDTH 428 0
DWIDTH 9 0
BBX 7 17 1 0
BITMAP
44
44
48
30
00
30
CC
04
02
02
02
7E
82
82
82
86
7A
ENDCHAR
STARTCHAR 0104
ENCODING 260
SWIDTH 571 0
DWIDTH 12 0
BBX 13 20 0 -4
BITMAP
0400
0600
0600
0900
0900
0900
1080
1080
1080
2040
3FC0
2040
4020
4020
4020
8010
0020
0040
0040
0078
ENDCHAR
STARTCHAR 0105
ENCODING 261
SWIDTH 428 0
DWIDTH 9 0
BBX 8 16 1 -4
BITMAP
30
CC
04
02
02
02
7E
82
82
82
86
7A
04
08
08
07
ENDCHAR
STARTCHAR 0106
ENCODING 262
SWIDTH 476 0
DWIDTH 10 0
BBX 9 20 1 0
BITMAP
0200
0400
0400
0000
0F00
3080
4000
4000
8000
8000
8000
8000
8000
8000
8000
8000
8000
4000
2000
1F80
ENDCHAR
STARTCHAR 0107
ENCODING 263
SWIDTH 333 0
DWIDTH 7 0
BBX 6 17 1 0
BITMAP
08
08
08
10
00
1C
60
40
80
80
80
80
80
80
80
40
3C
ENDCHAR
STARTCHAR 0108
ENCODING 264
SWIDTH 476 0
DWIDTH 10 0
BBX 9 20 1 0
BITMAP
0400
0A00
1300
0000
0F00
3080
4000
4000
8000
8000
8000
8000
8000
8000
8000
8000
8000
4000
2000
1F80
ENDCHAR
STARTCHAR 0109
ENCODING 265
SWIDTH 333 0
DWIDTH 7 0
BBX 6 17 1 0
BITMAP
10
28
28
44
00
1C
60
40
80
80
80
80
80
80
80
40
3C
ENDCHAR
STARTCHAR 010A
ENCODING 266
SWIDTH 476 0
DWIDTH 10 0
BBX 9 19 1 0
BITMAP
0400
0000
0000
0F00
3080
4000
4000
8000
8000
8000
8000
8000
8000
8000
8000
8000
4000
2000
1F80
ENDCHAR
STARTCHAR 010B
ENCODING 267
SWIDTH 333 0
DWIDTH 7 0
BBX 6 16 1 0
BITMAP
10
10
00
00
1C
60
40
80
80
80
80
80
80
80
40
3C
ENDCHAR
STARTCHAR 010C
ENCODING 268
SWIDTH 476 0
DWIDTH 10 0
BBX 9 20 1 0
BITMAP
1100
0A00
0C00
0000
0F00
3080
4000
4000
8000
8000
8000
8000
8000
8000
8000
8000
8000
4000
2000
1F80
ENDCHAR
STARTCHAR 010D
ENCODING 269
SWIDTH 333 0
DWIDTH 7 0
BBX 6 17 1 0
BITMAP
44
28
28
10
00
1C
60
40
80
80
80
80
80
80
80
40
3C
ENDCHAR
STARTCHAR 010E
ENCODING 270
SWIDTH 571 0
DWIDTH 12 0
BBX 9 20 2 0
BITMAP
4400
2800
1000
0000
F800
8600
8100
8100
8080
8080
8080
8080
8080
8080
8080
8080
8080
8100
8200
FC00
ENDCHAR
STARTCHAR 010F
ENCODING 271
SWIDTH 476 0
DWIDTH 10 0
BBX 9 17 1 0
BITMAP
0280
0280
0280
0280
0280
1E00
2200
4200
8200
8200
8200
8200
8200
8200
8200
4200
3E00
ENDCHAR
STARTCHAR 0110
ENCODING 272
SWIDTH 571 0
DWIDTH 12 0
BBX 11 16 0 0
BITMAP
3E00
2180
2040
2040
2020
2020
2020
2020
FC20
2020
2020
2020
2020
2040
2080
3F00
ENDCHAR
STARTCHAR 0111
ENCODING 273
SWIDTH 476 0
DWIDTH 10 0
BBX 9 17 1 0
BITMAP
0200
0200
1F80
0200
0200
1E00
2200
4200
8200
8200
8200
8200
8200
8200
8200
4200
3E00
ENDCHAR
STARTCHAR 0112
ENCODING 274
SWIDTH 476 0
DWIDTH 10 0
BBX 8 19 2 0
BITMAP
7C
00
00
FE
80
80
80
80
80
80
80
FE
80
80
80
80
80
80
FF
ENDCHAR
STARTCHAR 0113
ENCODING 275
SWIDTH 428 0
DWIDTH 9 0
BBX 7 15 1 0
BITMAP
7C
00
00
18
64
82
82
82
82
FE
80
80
80
40
3E
ENDCHAR
STARTCHAR 0114
ENCODING 276
SWIDTH 476 0
DWIDTH 10 0
BBX 8 20 2 0
BITMAP
42
44
38
00
FE
80
80
80
80
80
80
80
FE
80
80
80
80
80
80
FF
ENDCHAR
STARTCHAR 0115
ENCODING 277
SWIDTH 428 0
DWIDTH 9 0
BBX 7 17 1 0
BITMAP
44
44
24
18
00
18
64
82
82
82
82
FE
80
80
80
40
3E
ENDCHAR
STARTCHAR 0116
ENCODING 278
SWIDTH 476 0
DWIDTH 10 0
BBX 8 19 2 0
BITMAP
10
00
00
FE
80
80
80
80
80
80
80
FE
80
80
80
80
80
80
FF
ENDCHAR
STARTCHAR 0117
ENCODING 279
SWIDTH 428 0
DWIDTH 9 0
BBX 7 16 1 0
BITMAP
10
10
00
00
18
64
82
82
82
82
FE
80
80
80
40
3E
ENDCHAR
STARTCHAR 0118
ENCODING 280
SWIDTH 476 0
DWIDTH 10 0
BBX 9 20 2 -4
BITMAP
FE00
8000
8000
8000
8000
8000
8000
8000
FE00
8000
8000
8000
8000
8000
8000
FF00
0200
0400
0400
0780
ENDCHAR
STARTCHAR 0119
ENCODING 281
SWIDTH 428 0
DWIDTH 9 0
BBX 7 16 1 -4
BITMAP
18
64
82
82
82
82
FE
80
80
80
40
3E
08
10
10
0E
ENDCHAR
STARTCHAR 011A
ENCODING 282
SWIDTH 476 0
DWIDTH 10 0
BBX 8 20 2 0
BITMAP
44
28
18
00
FE
80
80
80
80
80
80
80
FE
80
80
80
80
80
80
FF
ENDCHAR
STARTCHAR 011B
ENCODING 283
SWIDTH 428 0
DWIDTH 9 0
BBX 7 17 1 0
BITMAP
44
28
28
10
00
18
64
82
82
82
82
FE
80
80
80
40
3E
ENDCHAR
STARTCHAR 011C
ENCODING 284
SWIDTH 571 0
DWIDTH 12 0
BBX 9 20 1 0
BITMAP
0400
0A00
1100
0000
0F80
3000
4000
4000
8000
8000
8000
8000
8080
8080
8080
8080
4080
4080
2080
1F80
ENDCHAR
STARTCHAR 011D
ENCODING 285
SWIDTH 476 0
DWIDTH 10 0
BBX 7 22 1 -5
BITMAP
18
18
24
24
00
1C
22
42
82
82
82
82
82
82
82
42
3E
02
02
02
04
78
ENDCHAR
STARTCHAR 011E
ENCODING 286
SWIDTH 571 0
DWIDTH 12 0
BBX 9 20 1 0
BITMAP
1100
1100
0E00
0000
0F80
3000
4000
4000
8000
8000
8000
8000
8080
8080
8080
8080
4080
4080
2080
1F80
ENDCHAR
STARTCHAR 011F
ENCODING 287
SWIDTH 476 0
DWIDTH 10 0
BBX 7 22 1 -5
BITMAP
42
24
24
18
00
1C
22
42
82
82
82
82
82
82
82
42
3E
02
02
02
04
78
ENDCHAR
STARTCHAR 0120
ENCODING 288
SWIDTH 571 0
DWIDTH 12 0
BBX 9 19 1 0
BITMAP
0400
0000
0000
0F80
3000
4000
4000
8000
8000
8000
8000
8080
8080
8080
8080
4080
4080
2080
1F80
ENDCHAR
STARTCHAR 0121
ENCODING 289
SWIDTH 476 0
DWIDTH 10 0
BBX 7 21 1 -5
BITMAP
10
08
00
00
1C
22
42
82
82
82
82
82
82
82
42
3E
02
02
02
04
78
ENDCHAR
STARTCHAR 0122
ENCODING 290
SWIDTH 571 0
DWIDTH 12 0
BBX 9 21 1 -5
BITMAP
0F80
3000
4000
4000
8000
8000
8000
8000
8080
8080
8080
8080
4080
4080
2080
1F80
0000
0000
0400
0400
0400
ENDCHAR
STARTCHAR 0123
ENCODING 291
SWIDTH 476 0
DWIDTH 10 0
BBX 7 22 1 -5
BITMAP
10
10
08
00
00
1C
22
42
82
82
82
82
82
82
82
42
3E
02
02
02
04
78
ENDCHAR
STARTCHAR 0124
ENCODING 292
SWIDTH 619 0
DWIDTH 13 0
BBX 9 20 2 0
BITMAP
0800
1400
2200
0000
8080
8080
8080
8080
8080
8080
8080
8080
FF80
8080
8080
8080
8080
8080
8080
8080
ENDCHAR
STARTCHAR 0125
ENCODING 293
SWIDTH 476 0
DWIDTH 10 0
BBX 6 21 2 0
BITMAP
30
50
48
80
80
80
80
80
80
B0
CC
84
84
84
84
84
84
84
84
84
84
ENDCHAR
STARTCHAR 0126
ENCODING 294
SWIDTH 619 0
DWIDTH 13 0
BBX 13 16 0 0
BITMAP
2020
2020
2020
2020
FFF8
2020
2020
2020
3FE0
2020
2020
2020
2020
2020
2020
2020
ENDCHAR
STARTCHAR 0127
ENCODING 295
SWIDTH 476 0
DWIDTH 10 0
BBX 8 17 0 0
BITMAP
40
40
F8
40
40
4C
53
21
41
41
41
41
41
41
41
41
41
ENDCHAR
STARTCHAR 0128
ENCODING 296
SWIDTH 190 0
DWIDTH 4 0
BBX 6 19 -1 0
BITMAP
FC
00
00
10
10
10
10
10
10
10
10
10
10
10
10
10
10
10
10
ENDCHAR
STARTCHAR 0129
ENCODING 297
SWIDTH 190 0
DWIDTH 4 0
BBX 5 16 -1 0
BITMAP
E8
18
00
00
00
20
20
20
20
20
20
20
20
20
20
20
ENDCHAR
STARTCHAR 012A
ENCODING 298
SWIDTH 190 0
DWIDTH 4 0
BBX 5 19 0 0
BITMAP
F8
00
00
20
20
20
20
20
20
20
20
20
20
20
20
20
20
20
20
ENDCHAR
STARTCHAR 012B
ENCODING 299
SWIDTH 190 0
DWIDTH 4 0
BBX 5 15 -1 0
BITMAP
F8
00
00
00
20
20
20
20
20
20
20
20
20
20
20
ENDCHAR
STARTCHAR 012C
ENCODING 300
SWIDTH 190 0
DWIDTH 4 0
BBX 5 20 0 0
BITMAP
88
88
70
00
20
20
20
20
20
20
20
20
20
20
20
20
20
20
20
20
ENDCHAR
STARTCHAR 012D
ENCODING 301
SWIDTH 190 0
DWIDTH 4 0
BBX 4 17 0 0
BITMAP
90
90
90
60
00
00
40
40
40
40
40
40
40
40
40
40
40
ENDCHAR
STARTCHAR 012E
ENCODING 302
SWIDTH 190 0
DWIDTH 4 0
BBX 4 20 0 -4
BITMAP
20
20
20
20
20
20
20
20
20
20
20
20
20
20
20
20
40
80
80
F0
ENDCHAR
STARTCHAR 012F
ENCODING 303
SWIDTH 190 0
DWIDTH 4 0
BBX 3 20 0 -4
BITMAP
40
60
00
00
00
40
40
40
40
40
40
40
40
40
40
40
40
80
80
E0
ENDCHAR
STARTCHAR 0130
ENCODING 304
SWIDTH 190 0
DWIDTH 4 0
BBX 2 19 1 0
BITMAP
C0
00
00
40
40
40
40
40
40
40
40
40
40
40
40
40
40
40
40
ENDCHAR
STARTCHAR 0131
ENCODING 305
SWIDTH 190 0
DWIDTH 4 0
BBX 1 11 1 0
BITMAP
80
80
80
80
80
80
80
80
80
80
80
ENDCHAR
STARTCHAR 0134
ENCODING 308
SWIDTH 190 0
DWIDTH 4 0
BBX 5 24 0 -4
BITMAP
60
50
90
08
20
20
20
20
20
20
20
20
20
20
20
20
20
20
20
40
40
40
80
80
ENDCHAR
STARTCHAR 0135
ENCODING 309
SWIDTH 190 0
DWIDTH 4 0
BBX 4 22 0 -5
BITMAP
40
60
90
90
00
00
40
40
40
40
40
40
40
40
40
40
40
40
40
40
80
80
ENDCHAR
STARTCHAR 0136
ENCODING 310
SWIDTH 523 0
DWIDTH 11 0
BBX 9 21 2 -5
BITMAP
8080
8100
8200
8200
8400
8800
9000
9000
F000
9000
8800
8400
8200
8200
8100
8080
0000
0000
1000
0800
1000
ENDCHAR
STARTCHAR 0137
ENCODING 311
SWIDTH 428 0
DWIDTH 9 0
BBX 7 22 2 -5
BITMAP
80
80
80
80
80
82
84
88
88
90
A0
E0
90
90
88
84
82
00
00
20
10
20
ENDCHAR
STARTCHAR 0138
ENCODING 312
SWIDTH 428 0
DWIDTH 9 0
BBX 7 11 2 0
BITMAP
86
88
88
90
A0
E0
90
90
88
84
82
ENDCHAR
STARTCHAR 0139
ENCODING 313
SWIDTH 428 0
DWIDTH 9 0
BBX 7 20 2 0
BITMAP
40
80
80
00
80
80
80
80
80
80
80
80
80
80
80
80
80
80
80
FE
ENDCHAR
STARTCHAR 013A
ENCODING 314
SWIDTH 190 0
DWIDTH 4 0
BBX 2 21 2 0
BITMAP
40
80
80
00
80
80
80
80
80
80
80
80
80
80
80
80
80
80
80
80
80
ENDCHAR
STARTCHAR 013B
ENCODING 315
SWIDTH 428 0
DWIDTH 9 0
BBX 7 21 2 -5
BITMAP
80
80
80
80
80
80
80
80
80
80
80
80
80
80
80
FE
00
00
10
10
10
ENDCHAR
STARTCHAR 013C
ENCODING 316
SWIDTH 190 0
DWIDTH 4 0
BBX 2 22 1 -5
BITMAP
80
80
80
80
80
80
80
80
80
80
80
80
80
80
80
80
80
00
00
80
40
80
ENDCHAR
STARTCHAR 013D
ENCODING 317
SWIDTH 428 0
DWIDTH 9 0
BBX 7 17 2 0
BITMAP
08
88
88
88
88
80
80
80
80
80
80
80
80
80
80
80
FE
ENDCHAR
STARTCHAR 013E
ENCODING 318
SWIDTH 190 0
DWIDTH 4 0
BBX 2 17 2 0
BITMAP
C0
C0
C0
C0
C0
80
80
80
80
80
80
80
80
80
80
80
80
ENDCHAR
STARTCHAR 013F
ENCODING 319
SWIDTH 428 0
DWIDTH 9 0
BBX 7 16 2 0
BITMAP
80
80
80
80
80
80
80
88
88
80
80
80
80
80
80
FE
ENDCHAR
STARTCHAR 0140
ENCODING 320
SWIDTH 190 0
DWIDTH 4 0
BBX 2 17 2 0
BITMAP
80
80
80
80
80
80
80
80
C0
80
80
80
80
80
80
80
80
ENDCHAR
STARTCHAR 0141
ENCODING 321
SWIDTH 428 0
DWIDTH 9 0
BBX 9 16 0 0
BITMAP
2000
2000
2000
2000
2000
2800
3000
2000
4000
A000
2000
2000
2000
2000
2000
3F80
ENDCHAR
STARTCHAR 0142
ENCODING 322
SWIDTH 190 0
DWIDTH 4 0
BBX 3 17 0 0
BITMAP
40
40
40
40
40
40
40
60
20
40
C0
C0
40
40
40
40
40
ENDCHAR
STARTCHAR 0143
ENCODING 323
SWIDTH 619 0
DWIDTH 13 0
BBX 9 20 2 0
BITMAP
0400
0400
0800
0000
8080
8080
C080
C080
A080
A080
9080
8880
8880
8480
8480
8280
8280
8180
8080
8080
ENDCHAR
STARTCHAR 0144
ENCODING 324
SWIDTH 476 0
DWIDTH 10 0
BBX 6 17 2 0
BITMAP
08
10
10
10
00
30
CC
84
84
84
84
84
84
84
84
84
84
ENDCHAR
STARTCHAR 0145
ENCODING 325
SWIDTH 619 0
DWIDTH 13 0
BBX 9 21 2 -5
BITMAP
8080
8080
C080
C080
A080
A080
9080
8880
8880
8480
8480
8280
8280
8180
8080
8080
0000
0000
0800
0800
0800
ENDCHAR
STARTCHAR 0146
ENCODING 326
SWIDTH 476 0
DWIDTH 10 0
BBX 6 17 2 -5
BITMAP
30
CC
84
84
84
84
84
84
84
84
84
84
00
00
30
10
20
ENDCHAR
STARTCHAR 0147
ENCODING 327
SWIDTH 619 0
DWIDTH 13 0
BBX 9 20 2 0
BITMAP
2200
1400
0800
0000
8080
8080
C080
C080
A080
A080
9080
8880
8880
8480
8480
8280
8280
8180
8080
8080
ENDCHAR
STARTCHAR 0148
ENCODING 328
SWIDTH 476 0
DWIDTH 10 0
BBX 6 17 2 0
BITMAP
48
48
30
20
00
30
CC
84
84
84
84
84
84
84
84
84
84
ENDCHAR
STARTCHAR 0149
ENCODING 329
SWIDTH 476 0
DWIDTH 10 0
BBX 8 17 0 0
BITMAP
80
40
80
00
00
0C
53
21
41
41
41
41
41
41
41
41
41
ENDCHAR
STARTCHAR 014A
ENCODING 330
SWIDTH 619 0
DWIDTH 13 0
BBX 9 21 2 -5
BITMAP
8080
8080
C080
C080
A080
A080
9080
8880
8880
8480
8480
8280
8280
8180
8080
8080
0080
0080
0080
0100
0100
ENDCHAR
STARTCHAR 014B
ENCODING 331
SWIDTH 476 0
DWIDTH 10 0
BBX 6 17 2 -5
BITMAP
30
CC
84
84
84
84
84
84
84
84
84
84
04
04
04
08
08
ENDCHAR
STARTCHAR 014C
ENCODING 332
SWIDTH 571 0
DWIDTH 12 0
BBX 10 19 1 0
BITMAP
1F00
0000
0000
1E00
2100
4080
4040
8040
8040
8040
8040
8040
8040
8040
8040
8040
4080
4080
3F00
ENDCHAR
STARTCHAR 014D
ENCODING 333
SWIDTH 476 0
DWIDTH 10 0
BBX 8 15 1 0
BITMAP
7C
00
00
18
64
82
82
81
81
81
81
81
82
42
3C
ENDCHAR
STARTCHAR 014E
ENCODING 334
SWIDTH 571 0
DWIDTH 12 0
BBX 10 20 1 0
BITMAP
2100
1100
0E00
0000
1E00
2100
4080
4040
8040
8040
8040
8040
8040
8040
8040
8040
8040
4080
4080
3F00
ENDCHAR
STARTCHAR 014F
ENCODING 335
SWIDTH 476 0
DWIDTH 10 0
BBX 8 17 1 0
BITMAP
44
44
24
18
00
18
64
82
82
81
81
81
81
81
82
42
3C
ENDCHAR
STARTCHAR 0150
ENCODING 336
SWIDTH 571 0
DWIDTH 12 0
BBX 10 20 1 0
BITMAP
0900
0A00
1200
0000
1E00
2100
4080
4040
8040
8040
8040
8040
8040
8040
8040
8040
8040
4080
4080
3F00
ENDCHAR
STARTCHAR 0151
ENCODING 337
SWIDTH 476 0
DWIDTH 10 0
BBX 8 17 1 0
BITMAP
14
14
24
24
00
18
64
82
82
81
81
81
81
81
82
42
3C
ENDCHAR
STARTCHAR 0152
ENCODING 338
SWIDTH 809 0
DWIDTH 17 0
BBX 16 16 1 0
BITMAP
0FFF
3080
4080
4080
8080
8080
8080
8080
80FE
8080
8080
8080
4080
4080
2080
1FFF
ENDCHAR
STARTCHAR 0153
ENCODING 339
SWIDTH 761 0
DWIDTH 16 0
BBX 14 12 1 0
BITMAP
1860
6498
8308
8104
8104
8104
81FC
8100
8100
8300
4280
3C78
ENDCHAR
STARTCHAR 0154
ENCODING 340
SWIDTH 571 0
DWIDTH 12 0
BBX 9 20 2 0
BITMAP
0800
0800
1000
0000
F800
8600
8100
8100
8100
8100
8100
8200
FC00
8800
8800
8400
8200
8100
8100
8080
ENDCHAR
STARTCHAR 0155
ENCODING 341
SWIDTH 285 0
DWIDTH 6 0
BBX 4 17 2 0
BITMAP
20
20
40
40
00
10
E0
80
80
80
80
80
80
80
80
80
80
ENDCHAR
STARTCHAR 0156
ENCODING 342
SWIDTH 571 0
DWIDTH 12 0
BBX 9 21 2 -5
BITMAP
F800
8600
8100
8100
8100
8100
8100
8200
FC00
8800
8800
8400
8200
8100
8100
8080
0000
0000
0800
0800
0800
ENDCHAR
STARTCHAR 0157
ENCODING 343
SWIDTH 285 0
DWIDTH 6 0
BBX 5 16 1 -5
BITMAP
B8
40
80
80
80
80
80
80
80
80
80
00
00
80
40
80
ENDCHAR
STARTCHAR 0158
ENCODING 344
SWIDTH 571 0
DWIDTH 12 0
BBX 9 20 2 0
BITMAP
4400
2800
1000
0000
F800
8600
8100
8100
8100
8100
8100
8200
FC00
8800
8800
8400
8200
8100
8100
8080
ENDCHAR
STARTCHAR 0159
ENCODING 345
SWIDTH 285 0
DWIDTH 6 0
BBX 5 17 1 0
BITMAP
88
50
50
20
00
08
B0
40
80
80
80
80
80
80
80
80
80
ENDCHAR
STARTCHAR 015A
ENCODING 346
SWIDTH 428 0
DWIDTH 9 0
BBX 7 20 1 0
BITMAP
08
08
10
00
3E
40
80
80
80
80
80
60
18
06
02
02
02
02
02
FC
ENDCHAR
STARTCHAR 015B
ENCODING 347
SWIDTH 380 0
DWIDTH 8 0
BBX 6 17 1 0
BITMAP
08
10
10
20
00
38
40
80
80
80
C0
38
04
04
04
04
F8
ENDCHAR
STARTCHAR 015C
ENCODING 348
SWIDTH 428 0
DWIDTH 9 0
BBX 7 20 1 0
BITMAP
10
28
44
00
3E
40
80
80
80
80
80
60
18
06
02
02
02
02
02
FC
ENDCHAR
STARTCHAR 015D
ENCODING 349
SWIDTH 380 0
DWIDTH 8 0
BBX 6 17 1 0
BITMAP
30
30
48
48
00
38
40
80
80
80
C0
38
04
04
04
04
F8
ENDCHAR
STARTCHAR 015E
ENCODING 350
SWIDTH 428 0
DWIDTH 9 0
BBX 7 20 1 -4
BITMAP
3E
40
80
80
80
80
80
60
18
06
02
02
02
02
02
FC
10
18
04
3C
ENDCHAR
STARTCHAR 015F
ENCODING 351
SWIDTH 380 0
DWIDTH 8 0
BBX 6 16 1 -4
BITMAP
38
40
80
80
80
C0
38
04
04
04
04
F8
20
10
08
78
ENDCHAR
STARTCHAR 0160
ENCODING 352
SWIDTH 428 0
DWIDTH 9 0
BBX 7 20 1 0
BITMAP
44
28
10
00
3E
40
80
80
80
80
80
60
18
06
02
02
02
02
02
FC
ENDCHAR
STARTCHAR 0161
ENCODING 353
SWIDTH 380 0
DWIDTH 8 0
BBX 6 17 1 0
BITMAP
48
48
30
20
00
38
40
80
80
80
C0
38
04
04
04
04
F8
ENDCHAR
STARTCHAR 0162
ENCODING 354
SWIDTH 476 0
DWIDTH 10 0
BBX 10 20 0 -4
BITMAP
FFC0
0400
0400
0400
0400
0400
0400
0400
0400
0400
0400
0400
0400
0400
0400
0400
0400
0600
0200
1E00
ENDCHAR
STARTCHAR 0163
ENCODING 355
SWIDTH 285 0
DWIDTH 6 0
BBX 6 20 0 -4
BITMAP
20
20
20
20
FC
20
20
20
20
20
20
20
20
20
20
1C
08
08
04
3C
ENDCHAR
STARTCHAR 0164
ENCODING 356
SWIDTH 476 0
DWIDTH 10 0
BBX 10 20 0 0
BITMAP
1300
1200
0C00
0000
FFC0
0400
0400
0400
0400
0400
0400
0400
0400
0400
0400
0400
0400
0400
0400
0400
ENDCHAR
STARTCHAR 0165
ENCODING 357
SWIDTH 285 0
DWIDTH 6 0
BBX 6 17 0 0
BITMAP
04
24
24
24
28
FC
20
20
20
20
20
20
20
20
20
20
1C
ENDCHAR
STARTCHAR 0166
ENCODING 358
SWIDTH 476 0
DWIDTH 10 0
BBX 10 16 0 0
BITMAP
FFC0
0400
0400
0400
0400
0400
0400
3F80
0400
0400
0400
0400
0400
0400
0400
0400
ENDCHAR
STARTCHAR 0167
ENCODING 359
SWIDTH 285 0
DWIDTH 6 0
BBX 6 16 0 0
BITMAP
20
20
20
20
FC
20
20
20
20
7C
20
20
20
20
20
1C
ENDCHAR
STARTCHAR 0168
ENCODING 360
SWIDTH 619 0
DWIDTH 13 0
BBX 9 19 2 0
BITMAP
7E00
0000
0000
8080
8080
8080
8080
8080
8080
8080
8080
8080
8080
8080
8080
8080
8080
8100
7E00
ENDCHAR
STARTCHAR 0169
ENCODING 361
SWIDTH 476 0
DWIDTH 10 0
BBX 7 16 1 0
BITMAP
72
0C
00
00
00
82
82
82
82
82
82
82
82
82
42
7E
ENDCHAR
STARTCHAR 016A
ENCODING 362
SWIDTH 619 0
DWIDTH 13 0
BBX 9 19 2 0
BITMAP
3E00
0000
0000
8080
8080
8080
8080
8080
8080
8080
8080
8080
8080
8080
8080
8080
8080
8100
7E00
ENDCHAR
STARTCHAR 016B
ENCODING 363
SWIDTH 476 0
DWIDTH 10 0
BBX 7 15 1 0
BITMAP
7C
00
00
00
82
82
82
82
82
82
82
82
82
42
7E
ENDCHAR
STARTCHAR 016C
ENCODING 364
SWIDTH 619 0
DWIDTH 13 0
BBX 9 20 2 0
BITMAP
2200
2200
1C00
0000
8080
8080
8080
8080
8080
8080
8080
8080
8080
8080
8080
8080
8080
8080
8100
7E00
ENDCHAR
STARTCHAR 016D
ENCODING 365
SWIDTH 476 0
DWIDTH 10 0
BBX 7 17 1 0
BITMAP
44
44
24
18
00
00
82
82
82
82
82
82
82
82
82
42
7E
ENDCHAR
STARTCHAR 016E
ENCODING 366
SWIDTH 619 0
DWIDTH 13 0
BBX 9 21 2 0
BITMAP
1800
2400
2400
1C00
0000
8080
8080
8080
8080
8080
8080
8080
8080
8080
8080
8080
8080
8080
8080
8100
7E00
ENDCHAR
STARTCHAR 016F
ENCODING 367
SWIDTH 476 0
DWIDTH 10 0
BBX 7 17 1 0
BITMAP
38
24
24
18
00
00
82
82
82
82
82
82
82
82
82
42
7E
ENDCHAR
STARTCHAR 0170
ENCODING 368
SWIDTH 619 0
DWIDTH 13 0
BBX 9 20 2 0
BITMAP
1200
1200
1400
0000
8080
8080
8080
8080
8080
8080
8080
8080
8080
8080
8080
8080
8080
8080
8100
7E00
ENDCHAR
STARTCHAR 0171
ENCODING 369
SWIDTH 476 0
DWIDTH 10 0
BBX 7 17 1 0
BITMAP
14
14
24
24
00
00
82
82
82
82
82
82
82
82
82
42
7E
ENDCHAR
STARTCHAR 0172
ENCODING 370
SWIDTH 619 0
DWIDTH 13 0
BBX 9 20 2 -4
BITMAP
8080
8080
8080
8080
8080
8080
8080
8080
8080
8080
8080
8080
8080
8080
8100
7E00
0800
1000
1000
1E00
ENDCHAR
STARTCHAR 0173
ENCODING 371
SWIDTH 476 0
DWIDTH 10 0
BBX 8 15 1 -4
BITMAP
82
82
82
82
82
82
82
82
82
42
7E
02
04
04
07
ENDCHAR
STARTCHAR 0174
ENCODING 372
SWIDTH 904 0
DWIDTH 19 0
BBX 17 20 1 0
BITMAP
008000
014000
022000
000000
808080
808080
818080
814100
814100
424100
424100
422200
422200
242200
241200
241400
141400
181400
180800
180800
ENDCHAR
STARTCHAR 0175
ENCODING 373
SWIDTH 714 0
DWIDTH 15 0
BBX 14 17 1 0
BITMAP
0200
0500
0500
0880
0000
0000
8204
8508
8508
8508
4490
4890
4890
4890
3060
3060
3060
ENDCHAR
STARTCHAR 0176
ENCODING 374
SWIDTH 476 0
DWIDTH 10 0
BBX 10 20 0 0
BITMAP
0400
0A00
1300
0000
8040
8040
4080
4080
2100
1100
1200
0C00
0400
0400
0400
0400
0400
0400
0400
0400
ENDCHAR
STARTCHAR 0177
ENCODING 375
SWIDTH 428 0
DWIDTH 9 0
BBX 9 22 0 -5
BITMAP
0800
1400
1400
2200
0000
0000
8080
4100
4100
4100
2200
2200
2200
1400
1400
1400
0800
0800
0800
1000
1000
1000
ENDCHAR
STARTCHAR 0178
ENCODING 376
SWIDTH 476 0
DWIDTH 10 0
BBX 10 19 0 0
BITMAP
1300
0000
0000
8040
8040
4080
4080
2100
1100
1200
0C00
0400
0400
0400
0400
0400
0400
0400
0400
ENDCHAR
STARTCHAR 0179
ENCODING 377
SWIDTH 476 0
DWIDTH 10 0
BBX 8 20 1 0
BITMAP
04
08
08
00
FF
01
01
02
04
04
08
08
10
10
20
20
40
40
80
FF
ENDCHAR
STARTCHAR 017A
ENCODING 378
SWIDTH 380 0
DWIDTH 8 0
BBX 6 17 1 0
BITMAP
08
10
10
10
00
F8
04
08
08
10
10
20
20
40
40
80
FC
ENDCHAR
STARTCHAR 017B
ENCODING 379
SWIDTH 476 0
DWIDTH 10 0
BBX 8 19 1 0
BITMAP
18
00
00
FF
01
01
02
04
04
08
08
10
10
20
20
40
40
80
FF
ENDCHAR
STARTCHAR 017C
ENCODING 380
SWIDTH 380 0
DWIDTH 8 0
BBX 6 16 1 0
BITMAP
20
30
00
00
F8
04
08
08
10
10
20
20
40
40
80
FC
ENDCHAR
STARTCHAR 017D
ENCODING 381
SWIDTH 476 0
DWIDTH 10 0
BBX 8 20 1 0
BITMAP
24
24
18
00
FF
01
01
02
04
04
08
08
10
10
20
20
40
40
80
FF
ENDCHAR
STARTCHAR 017E
ENCODING 382
SWIDTH 380 0
DWIDTH 8 0
BBX 6 17 1 0
BITMAP
48
48
30
20
00
F8
04
08
08
10
10
20
20
40
40
80
FC
ENDCHAR
STARTCHAR 018F
ENCODING 399
SWIDTH 571 0
DWIDTH 12 0
BBX 10 16 1 0
BITMAP
7E00
0100
0080
0040
0040
0040
0040
0040
FFC0
8040
8040
8040
8040
4080
4080
3F00
ENDCHAR
STARTCHAR 0192
ENCODING 402
SWIDTH 285 0
DWIDTH 6 0
BBX 7 22 -1 -5
BITMAP
0E
10
10
10
10
10
7E
10
10
10
10
10
10
10
10
10
10
10
10
10
10
E0
ENDCHAR
STARTCHAR 01A0
ENCODING 416
SWIDTH 571 0
DWIDTH 12 0
BBX 10 19 1 0
BITMAP
0040
0040
0040
1FC0
2100
4080
4040
8040
8040
8040
8040
8040
8040
8040
8040
8040
4080
4080
3F00
ENDCHAR
STARTCHAR 01A1
ENCODING 417
SWIDTH 476 0
DWIDTH 10 0
BBX 8 15 1 0
BITMAP
01
01
01
1A
64
82
82
81
81
81
81
81
82
42
3C
ENDCHAR
STARTCHAR 01AF
ENCODING 431
SWIDTH 619 0
DWIDTH 13 0
BBX 11 19 2 0
BITMAP
0020
0020
0020
80E0
8080
8080
8080
8080
8080
8080
8080
8080
8080
8080
8080
8080
8080
8100
7E00
ENDCHAR
STARTCHAR 01B0
ENCODING 432
SWIDTH 476 0
DWIDTH 10 0
BBX 9 15 1 0
BITMAP
0080
0080
0080
0180
8200
8200
8200
8200
8200
8200
8200
8200
8200
4200
7E00
ENDCHAR
STARTCHAR 01C4
ENCODING 452
SWIDTH 1047 0
DWIDTH 22 0
BBX 19 20 2 0
BITMAP
000880
000500
000300
000000
F83FE0
860020
810040
810040
808080
808080
808100
808100
808200
808400
808400
808800
808800
811000
821000
FC3FE0
ENDCHAR
STARTCHAR 01C5
ENCODING 453
SWIDTH 952 0
DWIDTH 20 0
BBX 17 17 2 0
BITMAP
000980
F80900
860600
810000
810000
809F00
808080
808080
808100
808100
808200
808400
808400
808800
810800
821000
FC1F80
ENDCHAR
STARTCHAR 01C6
ENCODING 454
SWIDTH 809 0
DWIDTH 17 0
BBX 16 17 1 0
BITMAP
0222
0214
0214
0208
0200
1E7E
2201
4202
8202
8204
8208
8208
8210
8210
8220
4220
3E7F
ENDCHAR
STARTCHAR 01C7
ENCODING 455
SWIDTH 666 0
DWIDTH 14 0
BBX 10 20 2 -4
BITMAP
8040
8040
8040
8040
8040
8040
8040
8040
8040
8040
8040
8040
8040
8040
8040
FE40
0080
0080
0080
0100
ENDCHAR
STARTCHAR 01C8
ENCODING 456
SWIDTH 619 0
DWIDTH 13 0
BBX 10 21 2 -5
BITMAP
8040
8040
8000
8000
8000
8040
8040
8040
8040
8040
8040
8040
8040
8040
8040
FE40
0040
0080
0080
0100
0100
ENDCHAR
STARTCHAR 01C9
ENCODING 457
SWIDTH 333 0
DWIDTH 7 0
BBX 4 22 2 -5
BITMAP
80
90
90
80
80
80
90
90
90
90
90
90
90
90
90
90
90
10
10
20
20
40
ENDCHAR
STARTCHAR 01CA
ENCODING 458
SWIDTH 809 0
DWIDTH 17 0
BBX 14 20 2 -4
BITMAP
8044
8044
C044
C044
A044
A044
9044
8844
8844
8444
8444
8244
8244
8144
8084
8088
0008
0008
0010
0010
ENDCHAR
STARTCHAR 01CB
ENCODING 459
SWIDTH 809 0
DWIDTH 17 0
BBX 14 21 2 -5
BITMAP
8048
804C
C040
C040
A040
A048
9048
8848
8848
8448
8448
8248
8248
8148
8088
8088
0008
0008
0008
0010
0010
ENDCHAR
STARTCHAR 01CC
ENCODING 460
SWIDTH 666 0
DWIDTH 14 0
BBX 10 21 2 -5
BITMAP
0040
0040
0000
0000
3000
CC40
8440
8440
8440
8440
8440
8440
8440
8440
8440
8440
0040
0040
0080
0080
0100
ENDCHAR
STARTCHAR 01E6
ENCODING 486
SWIDTH 571 0
DWIDTH 12 0
BBX 9 20 1 0
BITMAP
1100
0A00
0400
0000
0F80
3000
4000
4000
8000
8000
8000
8000
8080
8080
8080
8080
4080
4080
2080
1F80
ENDCHAR
STARTCHAR 01E7
ENCODING 487
SWIDTH 476 0
DWIDTH 10 0
BBX 7 22 1 -5
BITMAP
24
24
18
18
00
1C
22
42
82
82
82
82
82
82
82
42
3E
02
02
02
04
78
ENDCHAR
STARTCHAR 01EA
ENCODING 490
SWIDTH 571 0
DWIDTH 12 0
BBX 10 20 1 -4
BITMAP
1E00
2100
4080
4040
8040
8040
8040
8040
8040
8040
8040
8040
8040
4080
4080
3F00
0400
0800
0800
0F00
ENDCHAR
STARTCHAR 01EB
ENCODING 491
SWIDTH 476 0
DWIDTH 10 0
BBX 8 16 1 -4
BITMAP
18
64
82
82
81
81
81
81
81
82
42
3C
10
20
20
1C
ENDCHAR
STARTCHAR 01F1
ENCODING 497
SWIDTH 1047 0
DWIDTH 22 0
BBX 19 16 2 0
BITMAP
F83FE0
860020
810040
810040
808080
808080
808100
808100
808200
808400
808400
808800
808800
811000
821000
FC3FE0
ENDCHAR
STARTCHAR 01F2
ENCODING 498
SWIDTH 952 0
DWIDTH 20 0
BBX 17 16 2 0
BITMAP
F80000
860000
810000
810000
809F00
808080
808080
808100
808100
808200
808400
808400
808800
810800
821000
FC1F80
ENDCHAR
STARTCHAR 01F3
ENCODING 499
SWIDTH 809 0
DWIDTH 17 0
BBX 16 17 1 0
BITMAP
0200
0200
0200
0200
0200
1E7E
2201
4202
8202
8204
8208
8208
8210
8210
8220
4220
3E7F
ENDCHAR
STARTCHAR 01F4
ENCODING 500
SWIDTH 571 0
DWIDTH 12 0
BBX 9 20 1 0
BITMAP
0200
0200
0400
0000
0F80
3000
4000
4000
8000
8000
8000
8000
8080
8080
8080
8080
4080
4080
2080
1F80
ENDCHAR
STARTCHAR 01F5
ENCODING 501
SWIDTH 476 0
DWIDTH 10 0
BBX 7 22 1 -5
BITMAP
04
08
08
08
00
1C
22
42
82
82
82
82
82
82
82
42
3E
02
02
02
04
78
ENDCHAR
STARTCHAR 01FA
ENCODING 506
SWIDTH 571 0
DWIDTH 12 0
BBX 12 22 0 0
BITMAP
0080
0700
0900
0900
0600
0000
0400
0600
0600
0900
0900
0900
1080
1080
1080
2040
3FC0
2040
4020
4020
4020
8010
ENDCHAR
STARTCHAR 01FB
ENCODING 507
SWIDTH 428 0
DWIDTH 9 0
BBX 7 19 1 0
BITMAP
02
04
38
44
48
30
00
30
CC
04
02
02
02
7E
82
82
82
86
7A
ENDCHAR
STARTCHAR 01FC
ENCODING 508
SWIDTH 761 0
DWIDTH 16 0
BBX 16 20 0 0
BITMAP
0040
0040
0080
0000
03FF
0480
0480
0880
0880
0880
1080
1080
10FE
2080
3F80
2080
4080
4080
4080
807F
ENDCHAR
STARTCHAR 01FD
ENCODING 509
SWIDTH 714 0
DWIDTH 15 0
BBX 13 17 1 0
BITMAP
0100
0100
0200
0200
0000
30C0
CD30
0210
0208
0208
0208
7FF8
8200
8200
8200
8500
78F0
ENDCHAR
STARTCHAR 01FE
ENCODING 510
SWIDTH 571 0
DWIDTH 12 0
BBX 10 20 1 0
BITMAP
0200
0400
0400
0000
1E40
2140
4080
4140
8140
8240
8240
8440
8840
8840
9040
9040
A040
4080
4080
BF00
ENDCHAR
STARTCHAR 01FF
ENCODING 511
SWIDTH 476 0
DWIDTH 10 0
BBX 8 17 1 0
BITMAP
04
08
08
10
00
19
66
82
86
89
89
91
91
A1
C2
42
BC
ENDCHAR
STARTCHAR 0200
ENCODING 512
SWIDTH 571 0
DWIDTH 12 0
BBX 12 20 0 0
BITMAP
1200
0A00
0900
0000
0400
0600
0600
0900
0900
0900
1080
1080
1080
2040
3FC0
2040
4020
4020
4020
8010
ENDCHAR
STARTCHAR 0201
ENCODING 513
SWIDTH 428 0
DWIDTH 9 0
BBX 7 17 1 0
BITMAP
50
48
48
28
00
30
CC
04
02
02
02
7E
82
82
82
86
7A
ENDCHAR
STARTCHAR 0202
ENCODING 514
SWIDTH 571 0
DWIDTH 12 0
BBX 12 20 0 0
BITMAP
0600
0900
1080
0000
0400
0600
0600
0900
0900
0900
1080
1080
1080
2040
3FC0
2040
4020
4020
4020
8010
ENDCHAR
STARTCHAR 0203
ENCODING 515
SWIDTH 428 0
DWIDTH 9 0
BBX 7 17 1 0
BITMAP
38
44
44
00
00
30
CC
04
02
02
02
7E
82
82
82
86
7A
ENDCHAR
STARTCHAR 0204
ENCODING 516
SWIDTH 476 0
DWIDTH 10 0
BBX 8 20 2 0
BITMAP
48
48
28
00
FE
80
80
80
80
80
80
80
FE
80
80
80
80
80
80
FF
ENDCHAR
STARTCHAR 0205
ENCODING 517
SWIDTH 428 0
DWIDTH 9 0
BBX 7 17 1 0
BITMAP
48
48
48
28
00
18
64
82
82
82
82
FE
80
80
80
40
3E
ENDCHAR
STARTCHAR 0206
ENCODING 518
SWIDTH 476 0
DWIDTH 10 0
BBX 8 20 2 0
BITMAP
38
44
42
00
FE
80
80
80
80
80
80
80
FE
80
80
80
80
80
80
FF
ENDCHAR
STARTCHAR 0207
ENCODING 519
SWIDTH 428 0
DWIDTH 9 0
BBX 7 17 1 0
BITMAP
38
44
44
00
00
18
64
82
82
82
82
FE
80
80
80
40
3E
ENDCHAR
STARTCHAR 0208
ENCODING 520
SWIDTH 190 0
DWIDTH 4 0
BBX 5 20 -1 0
BITMAP
90
50
48
00
10
10
10
10
10
10
10
10
10
10
10
10
10
10
10
10
ENDCHAR
STARTCHAR 0209
ENCODING 521
SWIDTH 190 0
DWIDTH 4 0
BBX 4 17 -1 0
BITMAP
90
90
50
50
00
00
20
20
20
20
20
20
20
20
20
20
20
ENDCHAR
STARTCHAR 020A
ENCODING 522
SWIDTH 190 0
DWIDTH 4 0
BBX 5 20 0 0
BITMAP
60
90
88
00
20
20
20
20
20
20
20
20
20
20
20
20
20
20
20
20
ENDCHAR
STARTCHAR 020B
ENCODING 523
SWIDTH 190 0
DWIDTH 4 0
BBX 4 17 0 0
BITMAP
60
90
90
00
00
00
40
40
40
40
40
40
40
40
40
40
40
ENDCHAR
STARTCHAR 020C
ENCODING 524
SWIDTH 571 0
DWIDTH 12 0
BBX 10 20 1 0
BITMAP
2400
1400
1200
0000
1E00
2100
4080
4040
8040
8040
8040
8040
8040
8040
8040
8040
8040
4080
4080
3F00
ENDCHAR
STARTCHAR 020D
ENCODING 525
SWIDTH 476 0
DWIDTH 10 0
BBX 8 17 1 0
BITMAP
48
48
28
24
00
18
64
82
82
81
81
81
81
81
82
42
3C
ENDCHAR
STARTCHAR 020E
ENCODING 526
SWIDTH 571 0
DWIDTH 12 0
BBX 10 20 1 0
BITMAP
0C00
1200
2100
0000
1E00
2100
4080
4040
8040
8040
8040
8040
8040
8040
8040
8040
8040
4080
4080
3F00
ENDCHAR
STARTCHAR 020F
ENCODING 527
SWIDTH 476 0
DWIDTH 10 0
BBX 8 17 1 0
BITMAP
18
24
44
00
00
18
64
82
82
81
81
81
81
81
82
42
3C
ENDCHAR
STARTCHAR 0210
ENCODING 528
SWIDTH 571 0
DWIDTH 12 0
BBX 9 20 2 0
BITMAP
4800
4800
2800
0000
F800
8600
8100
8100
8100
8100
8100
8200
FC00
8800
8800
8400
8200
8100
8100
8080
ENDCHAR
STARTCHAR 0211
ENCODING 529
SWIDTH 285 0
DWIDTH 6 0
BBX 5 17 1 0
BITMAP
A0
90
90
50
00
08
B0
40
80
80
80
80
80
80
80
80
80
ENDCHAR
STARTCHAR 0212
ENCODING 530
SWIDTH 571 0
DWIDTH 12 0
BBX 9 20 2 0
BITMAP
3800
4400
4400
0000
F800
8600
8100
8100
8100
8100
8100
8200
FC00
8800
8800
8400
8200
8100
8100
8080
ENDCHAR
STARTCHAR 0213
ENCODING 531
SWIDTH 285 0
DWIDTH 6 0
BBX 5 17 1 0
BITMAP
70
88
88
00
00
08
B0
40
80
80
80
80
80
80
80
80
80
ENDCHAR
STARTCHAR 0214
ENCODING 532
SWIDTH 619 0
DWIDTH 13 0
BBX 9 20 2 0
BITMAP
2800
2400
2400
0000
8080
8080
8080
8080
8080
8080
8080
8080
8080
8080
8080
8080
8080
8080
8100
7E00
ENDCHAR
STARTCHAR 0215
ENCODING 533
SWIDTH 476 0
DWIDTH 10 0
BBX 7 17 1 0
BITMAP
48
48
28
24
00
00
82
82
82
82
82
82
82
82
82
42
7E
ENDCHAR
STARTCHAR 0216
ENCODING 534
SWIDTH 619 0
DWIDTH 13 0
BBX 9 20 2 0
BITMAP
1C00
2200
2200
0000
8080
8080
8080
8080
8080
8080
8080
8080
8080
8080
8080
8080
8080
8080
8100
7E00
ENDCHAR
STARTCHAR 0217
ENCODING 535
SWIDTH 476 0
DWIDTH 10 0
BBX 7 17 1 0
BITMAP
18
24
44
00
00
00
82
82
82
82
82
82
82
82
82
42
7E
ENDCHAR
STARTCHAR 0218
ENCODING 536
SWIDTH 428 0
DWIDTH 9 0
BBX 7 21 1 -5
BITMAP
3E
40
80
80
80
80
80
60
18
06
02
02
02
02
02
FC
00
00
10
10
10
ENDCHAR
STARTCHAR 0219
ENCODING 537
SWIDTH 380 0
DWIDTH 8 0
BBX 6 17 1 -5
BITMAP
38
40
80
80
80
C0
38
04
04
04
04
F8
00
00
30
10
20
ENDCHAR
STARTCHAR 021A
ENCODING 538
SWIDTH 476 0
DWIDTH 10 0
BBX 10 21 0 -5
BITMAP
FFC0
0400
0400
0400
0400
0400
0400
0400
0400
0400
0400
0400
0400
0400
0400
0400
0000
0000
0C00
0400
0400
ENDCHAR
STARTCHAR 021B
ENCODING 539
SWIDTH 285 0
DWIDTH 6 0
BBX 6 21 0 -5
BITMAP
20
20
20
20
FC
20
20
20
20
20
20
20
20
20
20
1C
00
00
18
08
08
ENDCHAR
STARTCHAR 022A
ENCODING 554
SWIDTH 571 0
DWIDTH 12 0
BBX 10 21 1 0
BITMAP
1F00
0000
1300
0000
0000
1E00
2100
4080
4040
8040
8040
8040
8040
8040
8040
8040
8040
8040
4080
4080
3F00
ENDCHAR
STARTCHAR 022B
ENCODING 555
SWIDTH 476 0
DWIDTH 10 0
BBX 8 18 1 0
BITMAP
7C
00
24
64
00
00
18
64
82
82
81
81
81
81
81
82
42
3C
ENDCHAR
STARTCHAR 022C
ENCODING 556
SWIDTH 571 0
DWIDTH 12 0
BBX 10 21 1 0
BITMAP
1F00
0000
3F00
0000
0000
1E00
2100
4080
4040
8040
8040
8040
8040
8040
8040
8040
8040
8040
4080
4080
3F00
ENDCHAR
STARTCHAR 022D
ENCODING 557
SWIDTH 476 0
DWIDTH 10 0
BBX 8 18 1 0
BITMAP
7C
00
72
0C
00
00
18
64
82
82
81
81
81
81
81
82
42
3C
ENDCHAR
STARTCHAR 0230
ENCODING 560
SWIDTH 571 0
DWIDTH 12 0
BBX 10 21 1 0
BITMAP
1F00
0000
0C00
0000
0000
1E00
2100
4080
4040
8040
8040
8040
8040
8040
8040
8040
8040
8040
4080
4080
3F00
ENDCHAR
STARTCHAR 0231
ENCODING 561
SWIDTH 476 0
DWIDTH 10 0
BBX 8 18 1 0
BITMAP
7C
00
10
10
00
00
18
64
82
82
81
81
81
81
81
82
42
3C
ENDCHAR
STARTCHAR 0232
ENCODING 562
SWIDTH 476 0
DWIDTH 10 0
BBX 10 19 0 0
BITMAP
1F00
0000
0000
8040
8040
4080
4080
2100
1100
1200
0C00
0400
0400
0400
0400
0400
0400
0400
0400
ENDCHAR
STARTCHAR 0233
ENCODING 563
SWIDTH 428 0
DWIDTH 9 0
BBX 9 20 0 -5
BITMAP
3E00
0000
0000
0000
8080
4100
4100
4100
2200
2200
2200
1400
1400
1400
0800
0800
0800
1000
1000
1000
ENDCHAR
STARTCHAR 0237
ENCODING 567
SWIDTH 190 0
DWIDTH 4 0
BBX 2 16 0 -5
BITMAP
40
40
40
40
40
40
40
40
40
40
40
40
40
40
80
80
ENDCHAR
STARTCHAR 0259
ENCODING 601
SWIDTH 428 0
DWIDTH 9 0
BBX 7 12 1 -1
BITMAP
F8
04
02
02
02
FE
82
82
82
84
4C
30
ENDCHAR
STARTCHAR 02BB
ENCODING 699
SWIDTH 380 0
DWIDTH 8 0
BBX 1 3 4 14
BITMAP
80
80
80
ENDCHAR
STARTCHAR 02BC
ENCODING 700
SWIDTH 380 0
DWIDTH 8 0
BBX 2 3 4 14
BITMAP
80
40
80
ENDCHAR
STARTCHAR 02BE
ENCODING 702
SWIDTH 380 0
DWIDTH 8 0
BBX 2 4 4 13
BITMAP
C0
40
40
80
ENDCHAR
STARTCHAR 02BF
ENCODING 703
SWIDTH 380 0
DWIDTH 8 0
BBX 2 4 2 13
BITMAP
40
80
80
40
ENDCHAR
STARTCHAR 02C6
ENCODING 710
SWIDTH 380 0
DWIDTH 8 0
BBX 5 4 4 13
BITMAP
20
50
90
88
ENDCHAR
STARTCHAR 02C7
ENCODING 711
SWIDTH 380 0
DWIDTH 8 0
BBX 5 4 4 13
BITMAP
98
50
60
20
ENDCHAR
STARTCHAR 02C8
ENCODING 712
SWIDTH 619 0
DWIDTH 13 0
BBX 1 4 6 13
BITMAP
80
80
80
80
ENDCHAR
STARTCHAR 02C9
ENCODING 713
SWIDTH 380 0
DWIDTH 8 0
BBX 5 1 2 14
BITMAP
F8
ENDCHAR
STARTCHAR 02CA
ENCODING 714
SWIDTH 380 0
DWIDTH 8 0
BBX 2 4 4 13
BITMAP
40
40
80
80
ENDCHAR
STARTCHAR 02CB
ENCODING 715
SWIDTH 380 0
DWIDTH 8 0
BBX 3 4 2 13
BITMAP
80
40
40
20
ENDCHAR
STARTCHAR 02CC
ENCODING 716
SWIDTH 619 0
DWIDTH 13 0
BBX 1 5 6 -5
BITMAP
80
80
80
80
80
ENDCHAR
STARTCHAR 02D8
ENCODING 728
SWIDTH 380 0
DWIDTH 8 0
BBX 5 4 4 13
BITMAP
88
88
90
60
ENDCHAR
STARTCHAR 02D9
ENCODING 729
SWIDTH 380 0
DWIDTH 8 0
BBX 1 2 6 14
BITMAP
80
80
ENDCHAR
STARTCHAR 02DA
ENCODING 730
SWIDTH 380 0
DWIDTH 8 0
BBX 4 4 4 13
BITMAP
70
90
90
60
ENDCHAR
STARTCHAR 02DB
ENCODING 731
SWIDTH 380 0
DWIDTH 8 0
BBX 3 4 4 -4
BITMAP
40
80
80
E0
ENDCHAR
STARTCHAR 02DC
ENCODING 732
SWIDTH 380 0
DWIDTH 8 0
BBX 5 2 4 14
BITMAP
E8
10
ENDCHAR
STARTCHAR 02DD
ENCODING 733
SWIDTH 380 0
DWIDTH 8 0
BBX 4 4 5 13
BITMAP
90
90
A0
A0
ENDCHAR
STARTCHAR 0300
ENCODING 768
SWIDTH 0 0
DWIDTH 0 0
BBX 3 4 4 13
BITMAP
80
40
40
20
ENDCHAR
STARTCHAR 0301
ENCODING 769
SWIDTH 0 0
DWIDTH 0 0
BBX 2 4 6 13
BITMAP
40
40
80
80
ENDCHAR
STARTCHAR 0302
ENCODING 770
SWIDTH 0 0
DWIDTH 0 0
BBX 5 4 4 13
BITMAP
20
50
90
88
ENDCHAR
STARTCHAR 0303
ENCODING 771
SWIDTH 0 0
DWIDTH 0 0
BBX 5 2 4 14
BITMAP
E8
10
ENDCHAR
STARTCHAR 0304
ENCODING 772
SWIDTH 0 0
DWIDTH 0 0
BBX 5 1 4 14
BITMAP
F8
ENDCHAR
STARTCHAR 0306
ENCODING 774
SWIDTH 0 0
DWIDTH 0 0
BBX 5 4 4 13
BITMAP
88
88
90
60
ENDCHAR
STARTCHAR 0307
ENCODING 775
SWIDTH 0 0
DWIDTH 0 0
BBX 1 2 6 14
BITMAP
80
80
ENDCHAR
STARTCHAR 0308
ENCODING 776
SWIDTH 0 0
DWIDTH 0 0
BBX 5 2 4 14
BITMAP
90
98
ENDCHAR
STARTCHAR 0309
ENCODING 777
SWIDTH 0 0
DWIDTH 0 0
BBX 3 4 5 13
BITMAP
E0
20
20
40
ENDCHAR
STARTCHAR 030A
ENCODING 778
SWIDTH 0 0
DWIDTH 0 0
BBX 4 4 4 13
BITMAP
70
90
90
60
ENDCHAR
STARTCHAR 030B
ENCODING 779
SWIDTH 0 0
DWIDTH 0 0
BBX 4 4 5 13
BITMAP
90
90
A0
A0
ENDCHAR
STARTCHAR 030C
ENCODING 780
SWIDTH 0 0
DWIDTH 0 0
BBX 5 4 4 13
BITMAP
98
50
60
20
ENDCHAR
STARTCHAR 030F
ENCODING 783
SWIDTH 0 0
DWIDTH 0 0
BBX 4 4 4 13
BITMAP
A0
90
90
90
ENDCHAR
STARTCHAR 0311
ENCODING 785
SWIDTH 0 0
DWIDTH 0 0
BBX 5 3 4 14
BITMAP
60
90
88
ENDCHAR
STARTCHAR 0312
ENCODING 786
SWIDTH 0 0
DWIDTH 0 0
BBX 1 3 6 14
BITMAP
80
80
80
ENDCHAR
STARTCHAR 031B
ENCODING 795
SWIDTH 0 0
DWIDTH 0 0
BBX 3 4 6 15
BITMAP
20
20
20
E0
ENDCHAR
STARTCHAR 0323
ENCODING 803
SWIDTH 0 0
DWIDTH 0 0
BBX 1 1 6 -3
BITMAP
80
ENDCHAR
STARTCHAR 0324
ENCODING 804
SWIDTH 0 0
DWIDTH 0 0
BBX 5 1 4 -3
BITMAP
98
ENDCHAR
STARTCHAR 0326
ENCODING 806
SWIDTH 0 0
DWIDTH 0 0
BBX 1 3 6 -5
BITMAP
80
80
80
ENDCHAR
STARTCHAR 0327
ENCODING 807
SWIDTH 0 0
DWIDTH 0 0
BBX 3 4 5 -4
BITMAP
40
60
20
E0
ENDCHAR
STARTCHAR 0328
ENCODING 808
SWIDTH 0 0
DWIDTH 0 0
BBX 3 4 4 -4
BITMAP
40
80
80
E0
ENDCHAR
STARTCHAR 032E
ENCODING 814
SWIDTH 0 0
DWIDTH 0 0
BBX 5 2 4 -4
BITMAP
88
70
ENDCHAR
STARTCHAR 0331
ENCODING 817
SWIDTH 0 0
DWIDTH 0 0
BBX 5 1 4 -3
BITMAP
F8
ENDCHAR
STARTCHAR 0394
ENCODING 916
SWIDTH 571 0
DWIDTH 12 0
BBX 12 16 0 0
BITMAP
0400
0600
0600
0900
0900
0900
1080
1080
1080
2040
2040
2040
4020
4020
4020
FFF0
ENDCHAR
STARTCHAR 03A9
ENCODING 937
SWIDTH 571 0
DWIDTH 12 0
BBX 10 16 1 0
BITMAP
1E00
2100
4080
4040
8040
8040
8040
8040
8040
8040
8040
8040
4080
4080
2100
F3C0
ENDCHAR
STARTCHAR 03BC
ENCODING 956
SWIDTH 476 0
DWIDTH 10 0
BBX 7 16 1 -5
BITMAP
82
82
82
82
82
82
82
82
82
82
FE
80
80
80
80
80
ENDCHAR
STARTCHAR 03C0
ENCODING 960
SWIDTH 571 0
DWIDTH 12 0
BBX 12 11 0 0
BITMAP
FFC0
2100
2100
2100
2100
2100
2100
2100
2100
2080
20F0
ENDCHAR
STARTCHAR 1E08
ENCODING 7688
SWIDTH 476 0
DWIDTH 10 0
BBX 9 24 1 -4
BITMAP
0200
0400
0400
0000
0F00
3080
4000
4000
8000
8000
8000
8000
8000
8000
8000
8000
8000
4000
2000
1F80
0400
0600
0100
0E00
ENDCHAR
STARTCHAR 1E09
ENCODING 7689
SWIDTH 333 0
DWIDTH 7 0
BBX 6 21 1 -4
BITMAP
08
08
08
10
00
1C
60
40
80
80
80
80
80
80
80
40
3C
10
18
08
38
ENDCHAR
STARTCHAR 1E0C
ENCODING 7692
SWIDTH 571 0
DWIDTH 12 0
BBX 9 19 2 -3
BITMAP
F800
8600
8100
8100
8080
8080
8080
8080
8080
8080
8080
8080
8080
8100
8200
FC00
0000
0000
1000
ENDCHAR
STARTCHAR 1E0D
ENCODING 7693
SWIDTH 476 0
DWIDTH 10 0
BBX 7 20 1 -3
BITMAP
02
02
02
02
02
1E
22
42
82
82
82
82
82
82
82
42
3E
00
00
10
ENDCHAR
STARTCHAR 1E0E
ENCODING 7694
SWIDTH 571 0
DWIDTH 12 0
BBX 9 19 2 -3
BITMAP
F800
8600
8100
8100
8080
8080
8080
8080
8080
8080
8080
8080
8080
8100
8200
FC00
0000
0000
7C00
ENDCHAR
STARTCHAR 1E0F
ENCODING 7695
SWIDTH 476 0
DWIDTH 10 0
BBX 7 20 1 -3
BITMAP
02
02
02
02
02
1E
22
42
82
82
82
82
82
82
82
42
3E
00
00
7C
ENDCHAR
STARTCHAR 1E14
ENCODING 7700
SWIDTH 476 0
DWIDTH 10 0
BBX 8 22 2 0
BITMAP
20
10
00
7C
00
00
FE
80
80
80
80
80
80
80
FE
80
80
80
80
80
80
FF
ENDCHAR
STARTCHAR 1E15
ENCODING 7701
SWIDTH 428 0
DWIDTH 9 0
BBX 7 20 1 0
BITMAP
20
20
10
00
00
7C
00
00
18
64
82
82
82
82
FE
80
80
80
40
3E
ENDCHAR
STARTCHAR 1E16
ENCODING 7702
SWIDTH 476 0
DWIDTH 10 0
BBX 8 22 2 0
BITMAP
0C
08
10
7C
00
00
FE
80
80
80
80
80
80
80
FE
80
80
80
80
80
80
FF
ENDCHAR
STARTCHAR 1E17
ENCODING 7703
SWIDTH 428 0
DWIDTH 9 0
BBX 7 20 1 0
BITMAP
08
08
10
00
00
7C
00
00
18
64
82
82
82
82
FE
80
80
80
40
3E
ENDCHAR
STARTCHAR 1E1C
ENCODING 7708
SWIDTH 476 0
DWIDTH 10 0
BBX 8 24 2 -4
BITMAP
42
44
38
00
FE
80
80
80
80
80
80
80
FE
80
80
80
80
80
80
FF
10
08
04
3C
ENDCHAR
STARTCHAR 1E1D
ENCODING 7709
SWIDTH 428 0
DWIDTH 9 0
BBX 7 21 1 -4
BITMAP
44
44
24
18
00
18
64
82
82
82
82
FE
80
80
80
40
3E
10
18
04
38
ENDCHAR
STARTCHAR 1E20
ENCODING 7712
SWIDTH 571 0
DWIDTH 12 0
BBX 9 19 1 0
BITMAP
1F00
0000
0000
0F80
3000
4000
4000
8000
8000
8000
8000
8080
8080
8080
8080
4080
4080
2080
1F80
ENDCHAR
STARTCHAR 1E21
ENCODING 7713
SWIDTH 476 0
DWIDTH 10 0
BBX 7 20 1 -5
BITMAP
7E
00
00
1C
22
42
82
82
82
82
82
82
82
42
3E
02
02
02
04
78
ENDCHAR
STARTCHAR 1E24
ENCODING 7716
SWIDTH 619 0
DWIDTH 13 0
BBX 9 19 2 -3
BITMAP
8080
8080
8080
8080
8080
8080
8080
8080
FF80
8080
8080
8080
8080
8080
8080
8080
0000
0000
0800
ENDCHAR
STARTCHAR 1E25
ENCODING 7717
SWIDTH 476 0
DWIDTH 10 0
BBX 6 20 2 -3
BITMAP
80
80
80
80
80
B0
CC
84
84
84
84
84
84
84
84
84
84
00
00
30
ENDCHAR
STARTCHAR 1E2A
ENCODING 7722
SWIDTH 619 0
DWIDTH 13 0
BBX 9 20 2 -4
BITMAP
8080
8080
8080
8080
8080
8080
8080
8080
FF80
8080
8080
8080
8080
8080
8080
8080
0000
0000
2200
1C00
ENDCHAR
STARTCHAR 1E2B
ENCODING 7723
SWIDTH 476 0
DWIDTH 10 0
BBX 6 21 2 -4
BITMAP
80
80
80
80
80
B0
CC
84
84
84
84
84
84
84
84
84
84
00
00
48
78
ENDCHAR
STARTCHAR 1E2E
ENCODING 7726
SWIDTH 190 0
DWIDTH 4 0
BBX 5 22 0 0
BITMAP
10
20
00
98
00
00
20
20
20
20
20
20
20
20
20
20
20
20
20
20
20
20
ENDCHAR
STARTCHAR 1E2F
ENCODING 7727
SWIDTH 190 0
DWIDTH 4 0
BBX 4 20 0 0
BITMAP
10
20
20
00
90
90
00
00
00
40
40
40
40
40
40
40
40
40
40
40
ENDCHAR
STARTCHAR 1E36
ENCODING 7734
SWIDTH 428 0
DWIDTH 9 0
BBX 7 19 2 -3
BITMAP
80
80
80
80
80
80
80
80
80
80
80
80
80
80
80
FE
00
00
10
ENDCHAR
STARTCHAR 1E37
ENCODING 7735
SWIDTH 190 0
DWIDTH 4 0
BBX 2 20 1 -3
BITMAP
80
80
80
80
80
80
80
80
80
80
80
80
80
80
80
80
80
00
00
C0
ENDCHAR
STARTCHAR 1E3A
ENCODING 7738
SWIDTH 428 0
DWIDTH 9 0
BBX 7 19 2 -3
BITMAP
80
80
80
80
80
80
80
80
80
80
80
80
80
80
80
FE
00
00
7C
ENDCHAR
STARTCHAR 1E3B
ENCODING 7739
SWIDTH 190 0
DWIDTH 4 0
BBX 4 20 0 -3
BITMAP
40
40
40
40
40
40
40
40
40
40
40
40
40
40
40
40
40
00
00
F0
ENDCHAR
STARTCHAR 1E42
ENCODING 7746
SWIDTH 761 0
DWIDTH 16 0
BBX 12 19 2 -3
BITMAP
8010
8010
8030
C030
C050
A050
A050
9090
9090
8910
8910
8910
8610
8610
8010
8010
0000
0000
0600
ENDCHAR
STARTCHAR 1E43
ENCODING 7747
SWIDTH 714 0
DWIDTH 15 0
BBX 12 15 2 -3
BITMAP
30C0
CB20
8410
8410
8410
8410
8410
8410
8410
8410
8410
8410
0000
0000
0400
ENDCHAR
STARTCHAR 1E44
ENCODING 7748
SWIDTH 619 0
DWIDTH 13 0
BBX 9 19 2 0
BITMAP
0800
0000
0000
8080
8080
C080
C080
A080
A080
9080
8880
8880
8480
8480
8280
8280
8180
8080
8080
ENDCHAR
STARTCHAR 1E45
ENCODING 7749
SWIDTH 476 0
DWIDTH 10 0
BBX 6 16 2 0
BITMAP
20
30
00
00
30
CC
84
84
84
84
84
84
84
84
84
84
ENDCHAR
STARTCHAR 1E46
ENCODING 7750
SWIDTH 619 0
DWIDTH 13 0
BBX 9 19 2 -3
BITMAP
8080
8080
C080
C080
A080
A080
9080
8880
8880
8480
8480
8280
8280
8180
8080
8080
0000
0000
0800
ENDCHAR
STARTCHAR 1E47
ENCODING 7751
SWIDTH 476 0
DWIDTH 10 0
BBX 6 15 2 -3
BITMAP
30
CC
84
84
84
84
84
84
84
84
84
84
00
00
30
ENDCHAR
STARTCHAR 1E48
ENCODING 7752
SWIDTH 619 0
DWIDTH 13 0
BBX 9 19 2 -3
BITMAP
8080
8080
C080
C080
A080
A080
9080
8880
8880
8480
8480
8280
8280
8180
8080
8080
0000
0000
3E00
ENDCHAR
STARTCHAR 1E49
ENCODING 7753
SWIDTH 476 0
DWIDTH 10 0
BBX 6 15 2 -3
BITMAP
30
CC
84
84
84
84
84
84
84
84
84
84
00
00
78
ENDCHAR
STARTCHAR 1E4C
ENCODING 7756
SWIDTH 571 0
DWIDTH 12 0
BBX 10 22 1 0
BITMAP
0200
0400
0000
3F00
0000
0000
1E00
2100
4080
4040
8040
8040
8040
8040
8040
8040
8040
8040
8040
4080
4080
3F00
ENDCHAR
STARTCHAR 1E4D
ENCODING 7757
SWIDTH 476 0
DWIDTH 10 0
BBX 8 20 1 0
BITMAP
04
08
08
10
72
0C
00
00
18
64
82
82
81
81
81
81
81
82
42
3C
ENDCHAR
STARTCHAR 1E4E
ENCODING 7758
SWIDTH 571 0
DWIDTH 12 0
BBX 10 21 1 0
BITMAP
1300
0000
3F00
0000
0000
1E00
2100
4080
4040
8040
8040
8040
8040
8040
8040
8040
8040
8040
4080
4080
3F00
ENDCHAR
STARTCHAR 1E4F
ENCODING 7759
SWIDTH 476 0
DWIDTH 10 0
BBX 8 19 1 0
BITMAP
24
64
00
72
0C
00
00
18
64
82
82
81
81
81
81
81
82
42
3C
ENDCHAR
STARTCHAR 1E50
ENCODING 7760
SWIDTH 571 0
DWIDTH 12 0
BBX 10 22 1 0
BITMAP
1800
0800
0000
1F00
0000
0000
1E00
2100
4080
4040
8040
8040
8040
8040
8040
8040
8040
8040
8040
4080
4080
3F00
ENDCHAR
STARTCHAR 1E51
ENCODING 7761
SWIDTH 476 0
DWIDTH 10 0
BBX 8 20 1 0
BITMAP
20
10
10
00
00
7C
00
00
18
64
82
82
81
81
81
81
81
82
42
3C
ENDCHAR
STARTCHAR 1E52
ENCODING 7762
SWIDTH 571 0
DWIDTH 12 0
BBX 10 22 1 0
BITMAP
0200
0400
0000
1F00
0000
0000
1E00
2100
4080
4040
8040
8040
8040
8040
8040
8040
8040
8040
8040
4080
4080
3F00
ENDCHAR
STARTCHAR 1E53
ENCODING 7763
SWIDTH 476 0
DWIDTH 10 0
BBX 8 20 1 0
BITMAP
04
08
08
10
00
7C
00
00
18
64
82
82
81
81
81
81
81
82
42
3C
ENDCHAR
STARTCHAR 1E5A
ENCODING 7770
SWIDTH 571 0
DWIDTH 12 0
BBX 9 19 2 -3
BITMAP
F800
8600
8100
8100
8100
8100
8100
8200
FC00
8800
8800
8400
8200
8100
8100
8080
0000
0000
0800
ENDCHAR
STARTCHAR 1E5B
ENCODING 7771
SWIDTH 285 0
DWIDTH 6 0
BBX 5 14 1 -3
BITMAP
B8
40
80
80
80
80
80
80
80
80
80
00
00
C0
ENDCHAR
STARTCHAR 1E5E
ENCODING 7774
SWIDTH 571 0
DWIDTH 12 0
BBX 9 19 2 -3
BITMAP
F800
8600
8100
8100
8100
8100
8100
8200
FC00
8800
8800
8400
8200
8100
8100
8080
0000
0000
3E00
ENDCHAR
STARTCHAR 1E5F
ENCODING 7775
SWIDTH 285 0
DWIDTH 6 0
BBX 6 14 0 -3
BITMAP
5C
20
40
40
40
40
40
40
40
40
40
00
00
F0
ENDCHAR
STARTCHAR 1E60
ENCODING 7776
SWIDTH 428 0
DWIDTH 9 0
BBX 7 19 1 0
BITMAP
10
00
00
3E
40
80
80
80
80
80
60
18
06
02
02
02
02
02
FC
ENDCHAR
STARTCHAR 1E61
ENCODING 7777
SWIDTH 380 0
DWIDTH 8 0
BBX 6 16 1 0
BITMAP
20
30
00
00
38
40
80
80
80
C0
38
04
04
04
04
F8
ENDCHAR
STARTCHAR 1E62
ENCODING 7778
SWIDTH 428 0
DWIDTH 9 0
BBX 7 19 1 -3
BITMAP
3E
40
80
80
80
80
80
60
18
06
02
02
02
02
02
FC
00
00
10
ENDCHAR
STARTCHAR 1E63
ENCODING 7779
SWIDTH 380 0
DWIDTH 8 0
BBX 6 15 1 -3
BITMAP
38
40
80
80
80
C0
38
04
04
04
04
F8
00
00
30
ENDCHAR
STARTCHAR 1E64
ENCODING 7780
SWIDTH 428 0
DWIDTH 9 0
BBX 7 21 1 0
BITMAP
20
28
08
10
00
3E
40
80
80
80
80
80
60
18
06
02
02
02
02
02
FC
ENDCHAR
STARTCHAR 1E65
ENCODING 7781
SWIDTH 380 0
DWIDTH 8 0
BBX 6 18 1 0
BITMAP
60
08
10
10
20
00
38
40
80
80
80
C0
38
04
04
04
04
F8
ENDCHAR
STARTCHAR 1E66
ENCODING 7782
SWIDTH 428 0
DWIDTH 9 0
BBX 7 21 1 0
BITMAP
10
44
28
10
00
3E
40
80
80
80
80
80
60
18
06
02
02
02
02
02
FC
ENDCHAR
STARTCHAR 1E67
ENCODING 7783
SWIDTH 380 0
DWIDTH 8 0
BBX 6 18 1 0
BITMAP
30
48
48
30
20
00
38
40
80
80
80
C0
38
04
04
04
04
F8
ENDCHAR
STARTCHAR 1E68
ENCODING 7784
SWIDTH 428 0
DWIDTH 9 0
BBX 7 22 1 -3
BITMAP
10
00
00
3E
40
80
80
80
80
80
60
18
06
02
02
02
02
02
FC
00
00
10
ENDCHAR
STARTCHAR 1E69
ENCODING 7785
SWIDTH 380 0
DWIDTH 8 0
BBX 6 19 1 -3
BITMAP
20
30
00
00
38
40
80
80
80
C0
38
04
04
04
04
F8
00
00
30
ENDCHAR
STARTCHAR 1E6C
ENCODING 7788
SWIDTH 476 0
DWIDTH 10 0
BBX 10 19 0 -3
BITMAP
FFC0
0400
0400
0400
0400
0400
0400
0400
0400
0400
0400
0400
0400
0400
0400
0400
0000
0000
0C00
ENDCHAR
STARTCHAR 1E6D
ENCODING 7789
SWIDTH 285 0
DWIDTH 6 0
BBX 6 19 0 -3
BITMAP
20
20
20
20
FC
20
20
20
20
20
20
20
20
20
20
1C
00
00
18
ENDCHAR
STARTCHAR 1E6E
ENCODING 7790
SWIDTH 476 0
DWIDTH 10 0
BBX 10 19 0 -3
BITMAP
FFC0
0400
0400
0400
0400
0400
0400
0400
0400
0400
0400
0400
0400
0400
0400
0400
0000
0000
1F00
ENDCHAR
STARTCHAR 1E6F
ENCODING 7791
SWIDTH 285 0
DWIDTH 6 0
BBX 6 19 0 -3
BITMAP
20
20
20
20
FC
20
20
20
20
20
20
20
20
20
20
1C
00
00
3C
ENDCHAR
STARTCHAR 1E78
ENCODING 7800
SWIDTH 619 0
DWIDTH 13 0
BBX 9 22 2 0
BITMAP
0400
0800
0000
7E00
0000
0000
8080
8080
8080
8080
8080
8080
8080
8080
8080
8080
8080
8080
8080
8080
8100
7E00
ENDCHAR
STARTCHAR 1E79
ENCODING 7801
SWIDTH 476 0
DWIDTH 10 0
BBX 7 20 1 0
BITMAP
04
08
08
10
72
0C
00
00
00
82
82
82
82
82
82
82
82
82
42
7E
ENDCHAR
STARTCHAR 1E7A
ENCODING 7802
SWIDTH 619 0
DWIDTH 13 0
BBX 9 21 2 0
BITMAP
2200
0000
3E00
0000
0000
8080
8080
8080
8080
8080
8080
8080
8080
8080
8080
8080
8080
8080
8080
8100
7E00
ENDCHAR
STARTCHAR 1E7B
ENCODING 7803
SWIDTH 476 0
DWIDTH 10 0
BBX 7 19 1 0
BITMAP
24
64
00
00
7C
00
00
00
82
82
82
82
82
82
82
82
82
42
7E
ENDCHAR
STARTCHAR 1E80
ENCODING 7808
SWIDTH 904 0
DWIDTH 19 0
BBX 17 20 1 0
BITMAP
010000
010000
008000
000000
808080
808080
818080
814100
814100
424100
424100
422200
422200
242200
241200
241400
141400
181400
180800
180800
ENDCHAR
STARTCHAR 1E81
ENCODING 7809
SWIDTH 714 0
DWIDTH 15 0
BBX 14 17 1 0
BITMAP
0400
0400
0200
0200
0000
0000
8204
8508
8508
8508
4490
4890
4890
4890
3060
3060
3060
ENDCHAR
STARTCHAR 1E82
ENCODING 7810
SWIDTH 904 0
DWIDTH 19 0
BBX 17 20 1 0
BITMAP
004000
004000
008000
000000
808080
808080
818080
814100
814100
424100
424100
422200
422200
242200
241200
241400
141400
181400
180800
180800
ENDCHAR
STARTCHAR 1E83
ENCODING 7811
SWIDTH 714 0
DWIDTH 15 0
BBX 14 17 1 0
BITMAP
0080
0100
0100
0200
0000
0000
8204
8508
8508
8508
4490
4890
4890
4890
3060
3060
3060
ENDCHAR
STARTCHAR 1E84
ENCODING 7812
SWIDTH 904 0
DWIDTH 19 0
BBX 17 19 1 0
BITMAP
022000
000000
000000
808080
808080
818080
814100
814100
424100
424100
422200
422200
242200
241200
241400
141400
181400
180800
180800
ENDCHAR
STARTCHAR 1E85
ENCODING 7813
SWIDTH 714 0
DWIDTH 15 0
BBX 14 16 1 0
BITMAP
0880
0C80
0000
0000
0000
8204
8508
8508
8508
4490
4890
4890
4890
3060
3060
3060
ENDCHAR
STARTCHAR 1E8E
ENCODING 7822
SWIDTH 476 0
DWIDTH 10 0
BBX 10 19 0 0
BITMAP
0C00
0000
0000
8040
8040
4080
4080
2100
1100
1200
0C00
0400
0400
0400
0400
0400
0400
0400
0400
ENDCHAR
STARTCHAR 1E8F
ENCODING 7823
SWIDTH 428 0
DWIDTH 9 0
BBX 9 21 0 -5
BITMAP
0800
0800
0000
0000
0000
8080
4100
4100
4100
2200
2200
2200
1400
1400
1400
0800
0800
0800
1000
1000
1000
ENDCHAR
STARTCHAR 1E92
ENCODING 7826
SWIDTH 476 0
DWIDTH 10 0
BBX 8 19 1 -3
BITMAP
FF
01
01
02
04
04
08
08
10
10
20
20
40
40
80
FF
00
00
18
ENDCHAR
STARTCHAR 1E93
ENCODING 7827
SWIDTH 380 0
DWIDTH 8 0
BBX 6 14 1 -3
BITMAP
FC
08
08
10
10
20
20
40
40
80
FC
00
00
30
ENDCHAR
STARTCHAR 1E97
ENCODING 7831
SWIDTH 285 0
DWIDTH 6 0
BBX 6 19 0 0
BITMAP
88
98
00
20
20
20
20
FC
20
20
20
20
20
20
20
20
20
20
1C
ENDCHAR
STARTCHAR 1E9E
ENCODING 7838
SWIDTH 571 0
DWIDTH 12 0
BBX 10 16 2 0
BITMAP
3E00
4100
8100
8200
8200
8400
8800
9000
9F00
8080
8080
8040
8040
8080
8080
BF00
ENDCHAR
STARTCHAR 1EA0
ENCODING 7840
SWIDTH 571 0
DWIDTH 12 0
BBX 12 19 0 -3
BITMAP
0400
0600
0600
0900
0900
0900
1080
1080
1080
2040
3FC0
2040
4020
4020
4020
8010
0000
0000
0600
ENDCHAR
STARTCHAR 1EA1
ENCODING 7841
SWIDTH 428 0
DWIDTH 9 0
BBX 7 15 1 -3
BITMAP
30
CC
04
02
02
02
7E
82
82
82
86
7A
00
00
10
ENDCHAR
STARTCHAR 1EA2
ENCODING 7842
SWIDTH 571 0
DWIDTH 12 0
BBX 12 20 0 0
BITMAP
0E00
0100
0200
0000
0400
0600
0600
0900
0900
0900
1080
1080
1080
2040
3FC0
2040
4020
4020
4020
8010
ENDCHAR
STARTCHAR 1EA3
ENCODING 7843
SWIDTH 428 0
DWIDTH 9 0
BBX 7 17 1 0
BITMAP
38
08
08
10
00
30
CC
04
02
02
02
7E
82
82
82
86
7A
ENDCHAR
STARTCHAR 1EA4
ENCODING 7844
SWIDTH 571 0
DWIDTH 12 0
BBX 12 22 0 0
BITMAP
0040
0080
0680
0A00
0900
1000
0400
0600
0600
0900
0900
0900
1080
1080
1080
2040
3FC0
2040
4020
4020
4020
8010
ENDCHAR
STARTCHAR 1EA5
ENCODING 7845
SWIDTH 428 0
DWIDTH 9 0
BBX 7 20 1 0
BITMAP
02
02
04
10
28
28
44
00
30
CC
04
02
02
02
7E
82
82
82
86
7A
ENDCHAR
STARTCHAR 1EA6
ENCODING 7846
SWIDTH 571 0
DWIDTH 12 0
BBX 12 22 0 0
BITMAP
0100
0100
0680
0500
0900
0080
0400
0600
0600
0900
0900
0900
1080
1080
1080
2040
3FC0
2040
4020
4020
4020
8010
ENDCHAR
STARTCHAR 1EA7
ENCODING 7847
SWIDTH 428 0
DWIDTH 9 0
BBX 7 20 1 0
BITMAP
08
08
04
10
28
28
44
00
30
CC
04
02
02
02
7E
82
82
82
86
7A
ENDCHAR
STARTCHAR 1EA8
ENCODING 7848
SWIDTH 571 0
DWIDTH 12 0
BBX 12 22 0 0
BITMAP
0380
0040
0680
0A00
0900
1000
0400
0600
0600
0900
0900
0900
1080
1080
1080
2040
3FC0
2040
4020
4020
4020
8010
ENDCHAR
STARTCHAR 1EA9
ENCODING 7849
SWIDTH 428 0
DWIDTH 9 0
BBX 8 20 1 0
BITMAP
0E
01
06
10
28
28
44
00
30
CC
04
02
02
02
7E
82
82
82
86
7A
ENDCHAR
STARTCHAR 1EAA
ENCODING 7850
SWIDTH 571 0
DWIDTH 12 0
BBX 12 22 0 0
BITMAP
0C80
1300
0600
0A00
0900
1000
0400
0600
0600
0900
0900
0900
1080
1080
1080
2040
3FC0
2040
4020
4020
4020
8010
ENDCHAR
STARTCHAR 1EAB
ENCODING 7851
SWIDTH 428 0
DWIDTH 9 0
BBX 7 19 1 0
BITMAP
74
08
10
28
28
44
00
30
CC
04
02
02
02
7E
82
82
82
86
7A
ENDCHAR
STARTCHAR 1EAC
ENCODING 7852
SWIDTH 571 0
DWIDTH 12 0
BBX 12 23 0 -3
BITMAP
0600
0A00
0900
1000
0400
0600
0600
0900
0900
0900
1080
1080
1080
2040
3FC0
2040
4020
4020
4020
8010
0000
0000
0600
ENDCHAR
STARTCHAR 1EAD
ENCODING 7853
SWIDTH 428 0
DWIDTH 9 0
BBX 7 20 1 -3
BITMAP
10
28
28
44
00
30
CC
04
02
02
02
7E
82
82
82
86
7A
00
00
10
ENDCHAR
STARTCHAR 1EAE
ENCODING 7854
SWIDTH 571 0
DWIDTH 12 0
BBX 12 22 0 0
BITMAP
0100
0200
1480
1100
0E00
0000
0400
0600
0600
0900
0900
0900
1080
1080
1080
2040
3FC0
2040
4020
4020
4020
8010
ENDCHAR
STARTCHAR 1EAF
ENCODING 7855
SWIDTH 428 0
DWIDTH 9 0
BBX 7 20 1 0
BITMAP
08
08
10
44
44
48
30
00
30
CC
04
02
02
02
7E
82
82
82
86
7A
ENDCHAR
STARTCHAR 1EB0
ENCODING 7856
SWIDTH 571 0
DWIDTH 12 0
BBX 12 22 0 0
BITMAP
0800
0400
1480
1100
0E00
0000
0400
0600
0600
0900
0900
0900
1080
1080
1080
2040
3FC0
2040
4020
4020
4020
8010
ENDCHAR
STARTCHAR 1EB1
ENCODING 7857
SWIDTH 428 0
DWIDTH 9 0
BBX 7 20 1 0
BITMAP
20
20
10
44
44
48
30
00
30
CC
04
02
02
02
7E
82
82
82
86
7A
ENDCHAR
STARTCHAR 1EB2
ENCODING 7858
SWIDTH 571 0
DWIDTH 12 0
BBX 12 22 0 0
BITMAP
0F00
0300
1480
1100
0E00
0000
0400
0600
0600
0900
0900
0900
1080
1080
1080
2040
3FC0
2040
4020
4020
4020
8010
ENDCHAR
STARTCHAR 1EB3
ENCODING 7859
SWIDTH 428 0
DWIDTH 9 0
BBX 7 20 1 0
BITMAP
30
08
18
44
44
48
30
00
30
CC
04
02
02
02
7E
82
82
82
86
7A
ENDCHAR
STARTCHAR 1EB4
ENCODING 7860
SWIDTH 571 0
DWIDTH 12 0
BBX 12 22 0 0
BITMAP
0C80
1300
1080
1100
0E00
0000
0400
0600
0600
0900
0900
0900
1080
1080
1080
2040
3FC0
2040
4020
4020
4020
8010
ENDCHAR
STARTCHAR 1EB5
ENCODING 7861
SWIDTH 428 0
DWIDTH 9 0
BBX 7 19 1 0
BITMAP
74
08
44
44
48
30
00
30
CC
04
02
02
02
7E
82
82
82
86
7A
ENDCHAR
STARTCHAR 1EB6
ENCODING 7862
SWIDTH 571 0
DWIDTH 12 0
BBX 12 23 0 -3
BITMAP
1080
1100
0F00
0000
0400
0600
0600
0900
0900
0900
1080
1080
1080
2040
3FC0
2040
4020
4020
4020
8010
0000
0000
0600
ENDCHAR
STARTCHAR 1EB7
ENCODING 7863
SWIDTH 428 0
DWIDTH 9 0
BBX 7 20 1 -3
BITMAP
44
44
48
30
00
30
CC
04
02
02
02
7E
82
82
82
86
7A
00
00
10
ENDCHAR
STARTCHAR 1EB8
ENCODING 7864
SWIDTH 476 0
DWIDTH 10 0
BBX 8 19 2 -3
BITMAP
FE
80
80
80
80
80
80
80
FE
80
80
80
80
80
80
FF
00
00
10
ENDCHAR
STARTCHAR 1EB9
ENCODING 7865
SWIDTH 428 0
DWIDTH 9 0
BBX 7 15 1 -3
BITMAP
18
64
82
82
82
82
FE
80
80
80
40
3E
00
00
10
ENDCHAR
STARTCHAR 1EBA
ENCODING 7866
SWIDTH 476 0
DWIDTH 10 0
BBX 8 20 2 0
BITMAP
38
04
08
00
FE
80
80
80
80
80
80
80
FE
80
80
80
80
80
80
FF
ENDCHAR
STARTCHAR 1EBB
ENCODING 7867
SWIDTH 428 0
DWIDTH 9 0
BBX 7 17 1 0
BITMAP
38
04
08
10
00
18
64
82
82
82
82
FE
80
80
80
40
3E
ENDCHAR
STARTCHAR 1EBC
ENCODING 7868
SWIDTH 476 0
DWIDTH 10 0
BBX 8 19 2 0
BITMAP
7E
00
00
FE
80
80
80
80
80
80
80
FE
80
80
80
80
80
80
FF
ENDCHAR
STARTCHAR 1EBD
ENCODING 7869
SWIDTH 428 0
DWIDTH 9 0
BBX 7 16 1 0
BITMAP
72
0C
00
00
18
64
82
82
82
82
FE
80
80
80
40
3E
ENDCHAR
STARTCHAR 1EBE
ENCODING 7870
SWIDTH 476 0
DWIDTH 10 0
BBX 8 22 2 0
BITMAP
01
02
12
28
64
00
FE
80
80
80
80
80
80
80
FE
80
80
80
80
80
80
FF
ENDCHAR
STARTCHAR 1EBF
ENCODING 7871
SWIDTH 428 0
DWIDTH 9 0
BBX 8 20 1 0
BITMAP
01
02
02
14
28
28
44
00
18
64
82
82
82
82
FE
80
80
80
40
3E
ENDCHAR
STARTCHAR 1EC0
ENCODING 7872
SWIDTH 476 0
DWIDTH 10 0
BBX 8 22 2 0
BITMAP
08
04
1C
2A
24
00
FE
80
80
80
80
80
80
80
FE
80
80
80
80
80
80
FF
ENDCHAR
STARTCHAR 1EC1
ENCODING 7873
SWIDTH 428 0
DWIDTH 9 0
BBX 7 20 1 0
BITMAP
08
08
04
10
28
28
44
00
18
64
82
82
82
82
FE
80
80
80
40
3E
ENDCHAR
STARTCHAR 1EC2
ENCODING 7874
SWIDTH 476 0
DWIDTH 10 0
BBX 8 22 2 0
BITMAP
0E
01
12
28
64
00
FE
80
80
80
80
80
80
80
FE
80
80
80
80
80
80
FF
ENDCHAR
STARTCHAR 1EC3
ENCODING 7875
SWIDTH 428 0
DWIDTH 9 0
BBX 8 20 1 0
BITMAP
0E
01
02
14
28
28
44
00
18
64
82
82
82
82
FE
80
80
80
40
3E
ENDCHAR
STARTCHAR 1EC4
ENCODING 7876
SWIDTH 476 0
DWIDTH 10 0
BBX 8 22 2 0
BITMAP
32
4C
10
28
64
00
FE
80
80
80
80
80
80
80
FE
80
80
80
80
80
80
FF
ENDCHAR
STARTCHAR 1EC5
ENCODING 7877
SWIDTH 428 0
DWIDTH 9 0
BBX 7 19 1 0
BITMAP
74
08
10
28
28
44
00
18
64
82
82
82
82
FE
80
80
80
40
3E
ENDCHAR
STARTCHAR 1EC6
ENCODING 7878
SWIDTH 476 0
DWIDTH 10 0
BBX 8 23 2 -3
BITMAP
10
28
64
00
FE
80
80
80
80
80
80
80
FE
80
80
80
80
80
80
FF
00
00
10
ENDCHAR
STARTCHAR 1EC7
ENCODING 7879
SWIDTH 428 0
DWIDTH 9 0
BBX 7 20 1 -3
BITMAP
10
28
28
44
00
18
64
82
82
82
82
FE
80
80
80
40
3E
00
00
10
ENDCHAR
STARTCHAR 1EC8
ENCODING 7880
SWIDTH 190 0
DWIDTH 4 0
BBX 4 20 0 0
BITMAP
F0
10
20
00
20
20
20
20
20
20
20
20
20
20
20
20
20
20
20
20
ENDCHAR
STARTCHAR 1EC9
ENCODING 7881
SWIDTH 190 0
DWIDTH 4 0
BBX 4 17 0 0
BITMAP
E0
10
20
40
00
00
40
40
40
40
40
40
40
40
40
40
40
ENDCHAR
STARTCHAR 1ECA
ENCODING 7882
SWIDTH 190 0
DWIDTH 4 0
BBX 2 19 1 -3
BITMAP
40
40
40
40
40
40
40
40
40
40
40
40
40
40
40
40
00
00
C0
ENDCHAR
STARTCHAR 1ECB
ENCODING 7883
SWIDTH 190 0
DWIDTH 4 0
BBX 2 19 1 -3
BITMAP
80
C0
00
00
00
80
80
80
80
80
80
80
80
80
80
80
00
00
C0
ENDCHAR
STARTCHAR 1ECC
ENCODING 7884
SWIDTH 571 0
DWIDTH 12 0
BBX 10 19 1 -3
BITMAP
1E00
2100
4080
4040
8040
8040
8040
8040
8040
8040
8040
8040
8040
4080
4080
3F00
0000
0000
0C00
ENDCHAR
STARTCHAR 1ECD
ENCODING 7885
SWIDTH 476 0
DWIDTH 10 0
BBX 8 15 1 -3
BITMAP
18
64
82
82
81
81
81
81
81
82
42
3C
00
00
10
ENDCHAR
STARTCHAR 1ECE
ENCODING 7886
SWIDTH 571 0
DWIDTH 12 0
BBX 10 20 1 0
BITMAP
1E00
0200
0400
0000
1E00
2100
4080
4040
8040
8040
8040
8040
8040
8040
8040
8040
8040
4080
4080
3F00
ENDCHAR
STARTCHAR 1ECF
ENCODING 7887
SWIDTH 476 0
DWIDTH 10 0
BBX 8 17 1 0
BITMAP
38
04
08
10
00
18
64
82
82
81
81
81
81
81
82
42
3C
ENDCHAR
STARTCHAR 1ED0
ENCODING 7888
SWIDTH 571 0
DWIDTH 12 0
BBX 10 22 1 0
BITMAP
0080
0080
0D00
0A00
1300
0000
1E00
2100
4080
4040
8040
8040
8040
8040
8040
8040
8040
8040
8040
4080
4080
3F00
ENDCHAR
STARTCHAR 1ED1
ENCODING 7889
SWIDTH 476 0
DWIDTH 10 0
BBX 8 20 1 0
BITMAP
01
02
02
10
28
24
44
00
18
64
82
82
81
81
81
81
81
82
42
3C
ENDCHAR
STARTCHAR 1ED2
ENCODING 7890
SWIDTH 571 0
DWIDTH 12 0
BBX 10 22 1 0
BITMAP
0200
0200
0500
0A00
1300
0000
1E00
2100
4080
4040
8040
8040
8040
8040
8040
8040
8040
8040
8040
4080
4080
3F00
ENDCHAR
STARTCHAR 1ED3
ENCODING 7891
SWIDTH 476 0
DWIDTH 10 0
BBX 8 20 1 0
BITMAP
08
04
04
10
28
24
44
00
18
64
82
82
81
81
81
81
81
82
42
3C
ENDCHAR
STARTCHAR 1ED4
ENCODING 7892
SWIDTH 571 0
DWIDTH 12 0
BBX 10 22 1 0
BITMAP
0300
0080
0D00
0A00
1300
0000
1E00
2100
4080
4040
8040
8040
8040
8040
8040
8040
8040
8040
8040
4080
4080
3F00
ENDCHAR
STARTCHAR 1ED5
ENCODING 7893
SWIDTH 476 0
DWIDTH 10 0
BBX 8 20 1 0
BITMAP
0E
01
02
10
28
24
44
00
18
64
82
82
81
81
81
81
81
82
42
3C
ENDCHAR
STARTCHAR 1ED6
ENCODING 7894
SWIDTH 571 0
DWIDTH 12 0
BBX 10 22 1 0
BITMAP
1900
2600
0C00
0A00
1300
0000
1E00
2100
4080
4040
8040
8040
8040
8040
8040
8040
8040
8040
8040
4080
4080
3F00
ENDCHAR
STARTCHAR 1ED7
ENCODING 7895
SWIDTH 476 0
DWIDTH 10 0
BBX 8 19 1 0
BITMAP
72
0C
10
28
24
44
00
18
64
82
82
81
81
81
81
81
82
42
3C
ENDCHAR
STARTCHAR 1ED8
ENCODING 7896
SWIDTH 571 0
DWIDTH 12 0
BBX 10 23 1 -3
BITMAP
0C00
0A00
1300
0000
1E00
2100
4080
4040
8040
8040
8040
8040
8040
8040
8040
8040
8040
4080
4080
3F00
0000
0000
0C00
ENDCHAR
STARTCHAR 1ED9
ENCODING 7897
SWIDTH 476 0
DWIDTH 10 0
BBX 8 20 1 -3
BITMAP
10
28
24
44
00
18
64
82
82
81
81
81
81
81
82
42
3C
00
00
10
ENDCHAR
STARTCHAR 1EDA
ENCODING 7898
SWIDTH 571 0
DWIDTH 12 0
BBX 10 20 1 0
BITMAP
0200
0440
0440
0040
1FC0
2100
4080
4040
8040
8040
8040
8040
8040
8040
8040
8040
8040
4080
4080
3F00
ENDCHAR
STARTCHAR 1EDB
ENCODING 7899
SWIDTH 476 0
DWIDTH 10 0
BBX 8 17 1 0
BITMAP
04
08
09
11
01
1A
64
82
82
81
81
81
81
81
82
42
3C
ENDCHAR
STARTCHAR 1EDC
ENCODING 7900
SWIDTH 571 0
DWIDTH 12 0
BBX 10 20 1 0
BITMAP
1000
0840
0840
0040
1FC0
2100
4080
4040
8040
8040
8040
8040
8040
8040
8040
8040
8040
4080
4080
3F00
ENDCHAR
STARTCHAR 1EDD
ENCODING 7901
SWIDTH 476 0
DWIDTH 10 0
BBX 8 17 1 0
BITMAP
20
20
11
11
01
1A
64
82
82
81
81
81
81
81
82
42
3C
ENDCHAR
STARTCHAR 1EDE
ENCODING 7902
SWIDTH 571 0
DWIDTH 12 0
BBX 10 20 1 0
BITMAP
1E00
0240
0440
0040
1FC0
2100
4080
4040
8040
8040
8040
8040
8040
8040
8040
8040
8040
4080
4080
3F00
ENDCHAR
STARTCHAR 1EDF
ENCODING 7903
SWIDTH 476 0
DWIDTH 10 0
BBX 8 17 1 0
BITMAP
38
04
09
11
01
1A
64
82
82
81
81
81
81
81
82
42
3C
ENDCHAR
STARTCHAR 1EE0
ENCODING 7904
SWIDTH 571 0
DWIDTH 12 0
BBX 10 19 1 0
BITMAP
3F40
0040
0040
1FC0
2100
4080
4040
8040
8040
8040
8040
8040
8040
8040
8040
8040
4080
4080
3F00
ENDCHAR
STARTCHAR 1EE1
ENCODING 7905
SWIDTH 476 0
DWIDTH 10 0
BBX 8 16 1 0
BITMAP
72
0D
01
01
1A
64
82
82
81
81
81
81
81
82
42
3C
ENDCHAR
STARTCHAR 1EE2
ENCODING 7906
SWIDTH 571 0
DWIDTH 12 0
BBX 10 22 1 -3
BITMAP
0040
0040
0040
1FC0
2100
4080
4040
8040
8040
8040
8040
8040
8040
8040
8040
8040
4080
4080
3F00
0000
0000
0C00
ENDCHAR
STARTCHAR 1EE3
ENCODING 7907
SWIDTH 476 0
DWIDTH 10 0
BBX 8 18 1 -3
BITMAP
01
01
01
1A
64
82
82
81
81
81
81
81
82
42
3C
00
00
10
ENDCHAR
STARTCHAR 1EE4
ENCODING 7908
SWIDTH 619 0
DWIDTH 13 0
BBX 9 19 2 -3
BITMAP
8080
8080
8080
8080
8080
8080
8080
8080
8080
8080
8080
8080
8080
8080
8100
7E00
0000
0000
0800
ENDCHAR
STARTCHAR 1EE5
ENCODING 7909
SWIDTH 476 0
DWIDTH 10 0
BBX 7 14 1 -3
BITMAP
82
82
82
82
82
82
82
82
82
42
7E
00
00
10
ENDCHAR
STARTCHAR 1EE6
ENCODING 7910
SWIDTH 619 0
DWIDTH 13 0
BBX 9 20 2 0
BITMAP
1C00
0400
0800
0000
8080
8080
8080
8080
8080
8080
8080
8080
8080
8080
8080
8080
8080
8080
8100
7E00
ENDCHAR
STARTCHAR 1EE7
ENCODING 7911
SWIDTH 476 0
DWIDTH 10 0
BBX 7 17 1 0
BITMAP
38
04
08
10
00
00
82
82
82
82
82
82
82
82
82
42
7E
ENDCHAR
STARTCHAR 1EE8
ENCODING 7912
SWIDTH 619 0
DWIDTH 13 0
BBX 11 20 2 0
BITMAP
0400
0420
0820
0020
80E0
8080
8080
8080
8080
8080
8080
8080
8080
8080
8080
8080
8080
8080
8100
7E00
ENDCHAR
STARTCHAR 1EE9
ENCODING 7913
SWIDTH 476 0
DWIDTH 10 0
BBX 9 17 1 0
BITMAP
0400
0800
0880
1080
0080
0180
8200
8200
8200
8200
8200
8200
8200
8200
8200
4200
7E00
ENDCHAR
STARTCHAR 1EEA
ENCODING 7914
SWIDTH 619 0
DWIDTH 13 0
BBX 11 20 2 0
BITMAP
3000
1020
0820
0020
80E0
8080
8080
8080
8080
8080
8080
8080
8080
8080
8080
8080
8080
8080
8100
7E00
ENDCHAR
STARTCHAR 1EEB
ENCODING 7915
SWIDTH 476 0
DWIDTH 10 0
BBX 9 17 1 0
BITMAP
2000
2000
1080
1080
0080
0180
8200
8200
8200
8200
8200
8200
8200
8200
8200
4200
7E00
ENDCHAR
STARTCHAR 1EEC
ENCODING 7916
SWIDTH 619 0
DWIDTH 13 0
BBX 11 20 2 0
BITMAP
1C00
0420
0820
0020
80E0
8080
8080
8080
8080
8080
8080
8080
8080
8080
8080
8080
8080
8080
8100
7E00
ENDCHAR
STARTCHAR 1EED
ENCODING 7917
SWIDTH 476 0
DWIDTH 10 0
BBX 9 17 1 0
BITMAP
3800
0400
0880
1080
0080
0180
8200
8200
8200
8200
8200
8200
8200
8200
8200
4200
7E00
ENDCHAR
STARTCHAR 1EEE
ENCODING 7918
SWIDTH 619 0
DWIDTH 13 0
BBX 11 19 2 0
BITMAP
7E20
0020
0020
80E0
8080
8080
8080
8080
8080
8080
8080
8080
8080
8080
8080
8080
8080
8100
7E00
ENDCHAR
STARTCHAR 1EEF
ENCODING 7919
SWIDTH 476 0
DWIDTH 10 0
BBX 9 16 1 0
BITMAP
7200
0C80
0080
0080
0180
8200
8200
8200
8200
8200
8200
8200
8200
8200
4200
7E00
ENDCHAR
STARTCHAR 1EF0
ENCODING 7920
SWIDTH 619 0
DWIDTH 13 0
BBX 11 22 2 -3
BITMAP
0020
0020
0020
80E0
8080
8080
8080
8080
8080
8080
8080
8080
8080
8080
8080
8080
8080
8100
7E00
0000
0000
0800
ENDCHAR
STARTCHAR 1EF1
ENCODING 7921
SWIDTH 476 0
DWIDTH 10 0
BBX 9 18 1 -3
BITMAP
0080
0080
0080
0180
8200
8200
8200
8200
8200
8200
8200
8200
8200
4200
7E00
0000
0000
1000
ENDCHAR
STARTCHAR 1EF2
ENCODING 7922
SWIDTH 476 0
DWIDTH 10 0
BBX 10 20 0 0
BITMAP
1000
0800
0800
0000
8040
8040
4080
4080
2100
1100
1200
0C00
0400
0400
0400
0400
0400
0400
0400
0400
ENDCHAR
STARTCHAR 1EF3
ENCODING 7923
SWIDTH 428 0
DWIDTH 9 0
BBX 9 22 0 -5
BITMAP
3000
1000
1000
0800
0000
0000
8080
4100
4100
4100
2200
2200
2200
1400
1400
1400
0800
0800
0800
1000
1000
1000
ENDCHAR
STARTCHAR 1EF4
ENCODING 7924
SWIDTH 476 0
DWIDTH 10 0
BBX 10 19 0 -3
BITMAP
8040
8040
4080
4080
2100
1100
1200
0C00
0400
0400
0400
0400
0400
0400
0400
0400
0000
0000
0C00
ENDCHAR
STARTCHAR 1EF5
ENCODING 7925
SWIDTH 428 0
DWIDTH 9 0
BBX 9 16 0 -5
BITMAP
8080
4100
4100
4100
2200
2200
2200
1400
1400
1400
0800
0800
0800
1200
1000
1000
ENDCHAR
STARTCHAR 1EF6
ENCODING 7926
SWIDTH 476 0
DWIDTH 10 0
BBX 10 20 0 0
BITMAP
1E00
0200
0400
0000
8040
8040
4080
4080
2100
1100
1200
0C00
0400
0400
0400
0400
0400
0400
0400
0400
ENDCHAR
STARTCHAR 1EF7
ENCODING 7927
SWIDTH 428 0
DWIDTH 9 0
BBX 9 22 0 -5
BITMAP
1C00
0400
0400
0800
0000
0000
8080
4100
4100
4100
2200
2200
2200
1400
1400
1400
0800
0800
0800
1000
1000
1000
ENDCHAR
STARTCHAR 1EF8
ENCODING 7928
SWIDTH 476 0
DWIDTH 10 0
BBX 10 19 0 0
BITMAP
3F00
0000
0000
8040
8040
4080
4080
2100
1100
1200
0C00
0400
0400
0400
0400
0400
0400
0400
0400
ENDCHAR
STARTCHAR 1EF9
ENCODING 7929
SWIDTH 428 0
DWIDTH 9 0
BBX 9 21 0 -5
BITMAP
3A00
0400
0000
0000
0000
8080
4100
4100
4100
2200
2200
2200
1400
1400
1400
0800
0800
0800
1000
1000
1000
ENDCHAR
STARTCHAR 2007
ENCODING 8199
SWIDTH 523 0
DWIDTH 11 0
BBX 0 0 0 0
BITMAP
ENDCHAR
STARTCHAR 2008
ENCODING 8200
SWIDTH 190 0
DWIDTH 4 0
BBX 0 0 0 0
BITMAP
ENDCHAR
STARTCHAR 2009
ENCODING 8201
SWIDTH 190 0
DWIDTH 4 0
BBX 0 0 0 0
BITMAP
ENDCHAR
STARTCHAR 200A
ENCODING 8202
SWIDTH 47 0
DWIDTH 1 0
BBX 0 0 0 0
BITMAP
ENDCHAR
STARTCHAR 200B
ENCODING 8203
SWIDTH 0 0
DWIDTH 0 0
BBX 0 0 0 0
BITMAP
ENDCHAR
STARTCHAR 2010
ENCODING 8208
SWIDTH 333 0
DWIDTH 7 0
BBX 4 1 2 5
BITMAP
F0
ENDCHAR
STARTCHAR 2012
ENCODING 8210
SWIDTH 523 0
DWIDTH 11 0
BBX 7 1 2 5
BITMAP
FE
ENDCHAR
STARTCHAR 2013
ENCODING 8211
SWIDTH 380 0
DWIDTH 8 0
BBX 8 1 0 5
BITMAP
FF
ENDCHAR
STARTCHAR 2014
ENCODING 8212
SWIDTH 809 0
DWIDTH 17 0
BBX 17 1 0 5
BITMAP
FFFF80
ENDCHAR
STARTCHAR 2015
ENCODING 8213
SWIDTH 809 0
DWIDTH 17 0
BBX 17 1 0 5
BITMAP
FFFF80
ENDCHAR
STARTCHAR 2018
ENCODING 8216
SWIDTH 190 0
DWIDTH 4 0
BBX 2 4 1 13
BITMAP
40
80
80
C0
ENDCHAR
STARTCHAR 2019
ENCODING 8217
SWIDTH 190 0
DWIDTH 4 0
BBX 2 4 1 13
BITMAP
C0
40
40
80
ENDCHAR
STARTCHAR 201A
ENCODING 8218
SWIDTH 190 0
DWIDTH 4 0
BBX 2 4 1 -3
BITMAP
C0
40
40
80
ENDCHAR
STARTCHAR 201C
ENCODING 8220
SWIDTH 285 0
DWIDTH 6 0
BBX 4 4 1 13
BITMAP
50
90
90
D0
ENDCHAR
STARTCHAR 201D
ENCODING 8221
SWIDTH 285 0
DWIDTH 6 0
BBX 4 4 1 13
BITMAP
D0
50
50
90
ENDCHAR
STARTCHAR 201E
ENCODING 8222
SWIDTH 285 0
DWIDTH 6 0
BBX 4 4 1 -3
BITMAP
D0
50
50
90
ENDCHAR
STARTCHAR 2020
ENCODING 8224
SWIDTH 428 0
DWIDTH 9 0
BBX 7 15 1 2
BITMAP
10
10
10
FE
10
10
10
10
10
10
10
10
10
10
10
ENDCHAR
STARTCHAR 2021
ENCODING 8225
SWIDTH 428 0
DWIDTH 9 0
BBX 7 15 1 2
BITMAP
10
10
10
FE
10
10
10
10
10
10
10
FE
10
10
10
ENDCHAR
STARTCHAR 2022
ENCODING 8226
SWIDTH 333 0
DWIDTH 7 0
BBX 4 4 1 4
BITMAP
70
F0
F0
70
ENDCHAR
STARTCHAR 2026
ENCODING 8230
SWIDTH 523 0
DWIDTH 11 0
BBX 9 1 1 0
BITMAP
C980
ENDCHAR
STARTCHAR 2030
ENCODING 8240
SWIDTH 1095 0
DWIDTH 23 0
BBX 21 16 1 0
BITMAP
304000
484000
844000
848000
848000
848000
851060
856890
894488
728508
028508
048508
048508
048508
084488
0838F0
ENDCHAR
STARTCHAR 2032
ENCODING 8242
SWIDTH 190 0
DWIDTH 4 0
BBX 1 7 1 10
BITMAP
80
80
80
80
80
80
80
ENDCHAR
STARTCHAR 2033
ENCODING 8243
SWIDTH 285 0
DWIDTH 6 0
BBX 4 7 1 10
BITMAP
90
90
90
90
90
90
90
ENDCHAR
STARTCHAR 2039
ENCODING 8249
SWIDTH 238 0
DWIDTH 5 0
BBX 3 9 1 1
BITMAP
20
40
40
80
80
40
40
20
20
ENDCHAR
STARTCHAR 203A
ENCODING 8250
SWIDTH 238 0
DWIDTH 5 0
BBX 2 9 1 1
BITMAP
80
80
40
40
40
40
80
80
80
ENDCHAR
STARTCHAR 2044
ENCODING 8260
SWIDTH 95 0
DWIDTH 2 0
BBX 8 18 -3 -1
BITMAP
01
01
02
02
04
04
04
08
08
10
10
10
20
20
40
40
80
80
ENDCHAR
STARTCHAR 2070
ENCODING 8304
SWIDTH 333 0
DWIDTH 7 0
BBX 5 11 1 6
BITMAP
70
88
88
88
88
88
88
88
88
88
70
ENDCHAR
STARTCHAR 2074
ENCODING 8308
SWIDTH 333 0
DWIDTH 7 0
BBX 7 11 0 6
BITMAP
08
10
10
20
24
44
44
FE
04
04
04
ENDCHAR
STARTCHAR 2075
ENCODING 8309
SWIDTH 333 0
DWIDTH 7 0
BBX 5 11 1 6
BITMAP
78
80
80
80
C0
30
08
08
08
08
F0
ENDCHAR
STARTCHAR 2076
ENCODING 8310
SWIDTH 333 0
DWIDTH 7 0
BBX 6 11 1 6
BITMAP
38
40
80
80
B0
C8
84
84
84
48
30
ENDCHAR
STARTCHAR 2077
ENCODING 8311
SWIDTH 333 0
DWIDTH 7 0
BBX 5 11 1 6
BITMAP
F8
08
08
10
10
20
20
20
40
40
40
ENDCHAR
STARTCHAR 2078
ENCODING 8312
SWIDTH 333 0
DWIDTH 7 0
BBX 6 11 1 6
BITMAP
70
88
88
88
48
70
88
84
84
88
70
ENDCHAR
STARTCHAR 2079
ENCODING 8313
SWIDTH 333 0
DWIDTH 7 0
BBX 6 11 0 6
BITMAP
78
44
84
84
44
3C
04
04
04
08
70
ENDCHAR
STARTCHAR 2080
ENCODING 8320
SWIDTH 333 0
DWIDTH 7 0
BBX 5 11 1 -2
BITMAP
70
88
88
88
88
88
88
88
88
48
30
ENDCHAR
STARTCHAR 2081
ENCODING 8321
SWIDTH 333 0
DWIDTH 7 0
BBX 5 10 1 -1
BITMAP
20
60
A0
20
20
20
20
20
20
F8
ENDCHAR
STARTCHAR 2082
ENCODING 8322
SWIDTH 333 0
DWIDTH 7 0
BBX 5 10 1 -1
BITMAP
F0
08
08
08
10
10
20
40
40
F8
ENDCHAR
STARTCHAR 2083
ENCODING 8323
SWIDTH 333 0
DWIDTH 7 0
BBX 5 11 1 -2
BITMAP
F0
08
08
08
30
50
08
08
08
98
60
ENDCHAR
STARTCHAR 2084
ENCODING 8324
SWIDTH 333 0
DWIDTH 7 0
BBX 7 10 0 -1
BITMAP
08
10
10
24
24
44
44
FE
04
04
ENDCHAR
STARTCHAR 2085
ENCODING 8325
SWIDTH 333 0
DWIDTH 7 0
BBX 5 11 1 -2
BITMAP
78
80
80
80
E0
18
08
08
08
88
70
ENDCHAR
STARTCHAR 2086
ENCODING 8326
SWIDTH 333 0
DWIDTH 7 0
BBX 6 11 1 -2
BITMAP
38
40
80
80
B0
C8
84
84
84
48
30
ENDCHAR
STARTCHAR 2087
ENCODING 8327
SWIDTH 333 0
DWIDTH 7 0
BBX 5 10 1 -1
BITMAP
F8
08
08
10
10
20
20
20
40
40
ENDCHAR
STARTCHAR 2088
ENCODING 8328
SWIDTH 333 0
DWIDTH 7 0
BBX 6 11 1 -2
BITMAP
78
88
88
88
48
70
88
84
84
88
70
ENDCHAR
STARTCHAR 2089
ENCODING 8329
SWIDTH 333 0
DWIDTH 7 0
BBX 6 11 0 -2
BITMAP
78
44
84
84
44
3C
04
04
04
08
70
ENDCHAR
STARTCHAR 20A1
ENCODING 8353
SWIDTH 476 0
DWIDTH 10 0
BBX 9 21 1 -3
BITMAP
0480
0500
0F00
3080
4000
4000
8000
8000
8000
8000
8000
8000
8000
8000
8000
4000
6000
5F80
5000
9000
A000
ENDCHAR
STARTCHAR 20A3
ENCODING 8355
SWIDTH 523 0
DWIDTH 11 0
BBX 10 16 1 0
BITMAP
3FC0
2000
2000
2000
2000
2000
2000
3F80
2000
2000
2000
FC00
2000
2000
2000
2000
ENDCHAR
STARTCHAR 20A4
ENCODING 8356
SWIDTH 523 0
DWIDTH 11 0
BBX 9 16 1 0
BITMAP
0F80
1000
2000
2000
2000
2000
FF00
2000
2000
FF00
2000
2000
2000
2000
2000
FF80
ENDCHAR
STARTCHAR 20A6
ENCODING 8358
SWIDTH 761 0
DWIDTH 16 0
BBX 14 16 1 0
BITMAP
2010
2010
3010
2810
2810
2410
E41C
2210
2110
E11C
2090
2090
2050
2050
2030
2010
ENDCHAR
STARTCHAR 20A7
ENCODING 8359
SWIDTH 1095 0
DWIDTH 23 0
BBX 20 16 2 0
BITMAP
F82000
842000
822000
812000
81FCE0
812110
812200
812200
822200
8C2100
F020E0
802010
802010
802010
802010
803FE0
ENDCHAR
STARTCHAR 20A9
ENCODING 8361
SWIDTH 952 0
DWIDTH 20 0
BBX 18 16 1 0
BITMAP
808040
80C080
40C080
414080
412080
412100
C121C0
222100
221100
E213C0
121200
141200
140A00
140C00
080C00
080C00
ENDCHAR
STARTCHAR 20AB
ENCODING 8363
SWIDTH 476 0
DWIDTH 10 0
BBX 9 20 1 -3
BITMAP
0200
0200
1F80
0200
0200
1E00
2200
4200
8200
8200
8200
8200
8200
8200
8200
4200
3E00
0000
0000
FE00
ENDCHAR
STARTCHAR 20AC
ENCODING 8364
SWIDTH 523 0
DWIDTH 11 0
BBX 10 16 1 0
BITMAP
07C0
1800
2000
2000
2000
4000
FF00
4000
4000
FF00
4000
4000
2000
2000
1000
0FC0
ENDCHAR
STARTCHAR 20AD
ENCODING 8365
SWIDTH 571 0
DWIDTH 12 0
BBX 12 16 1 0
BITMAP
2020
2040
2040
2080
2100
2200
2200
2400
FFC0
2200
2200
2100
2080
2040
2020
2030
ENDCHAR
STARTCHAR 20B1
ENCODING 8369
SWIDTH 619 0
DWIDTH 13 0
BBX 12 16 1 0
BITMAP
1E00
2180
2040
E070
2040
2040
2040
E070
2080
2100
3E00
2000
2000
2000
2000
2000
ENDCHAR
STARTCHAR 20B2
ENCODING 8370
SWIDTH 571 0
DWIDTH 12 0
BBX 9 21 1 -3
BITMAP
0400
0400
0F80
3000
4000
4000
8000
8000
8000
8000
8080
8080
8080
8080
4080
4080
2080
1F80
0400
0400
0400
ENDCHAR
STARTCHAR 20B5
ENCODING 8373
SWIDTH 476 0
DWIDTH 10 0
BBX 9 21 1 -3
BITMAP
0400
0400
0F00
3080
4000
4000
8000
8000
8000
8000
8000
8000
8000
8000
8000
4000
2000
1F80
0400
0400
0400
ENDCHAR
STARTCHAR 20B9
ENCODING 8377
SWIDTH 523 0
DWIDTH 11 0
BBX 9 16 1 0
BITMAP
FF80
0400
0200
0200
FF80
0100
0200
0200
FC00
1000
0800
0400
0400
0200
0100
0180
ENDCHAR
STARTCHAR 20BA
ENCODING 8378
SWIDTH 523 0
DWIDTH 11 0
BBX 9 16 1 0
BITMAP
2000
2000
2300
2C00
3000
6000
A300
2C00
3000
E000
2000
2000
2000
2000
2000
1F80
ENDCHAR
STARTCHAR 20BC
ENCODING 8380
SWIDTH 619 0
DWIDTH 13 0
BBX 9 18 2 0
BITMAP
0800
0800
1C00
6A00
4900
8900
8880
8880
8880
8880
8880
8880
8080
8080
8080
8080
8080
8080
ENDCHAR
STARTCHAR 20BD
ENCODING 8381
SWIDTH 571 0
DWIDTH 12 0
BBX 10 16 1 0
BITMAP
1E00
2180
2040
2040
2040
2040
2040
2080
FF00
2000
2000
2000
FE00
2000
2000
2000
ENDCHAR
STARTCHAR 20BF
ENCODING 8383
SWIDTH 523 0
DWIDTH 11 0
BBX 9 21 2 -3
BITMAP
2800
2800
FC00
8200
8100
8100
8100
8100
8100
8E00
F600
8100
8080
8080
8080
8100
8100
FE00
2800
2800
2800
ENDCHAR
STARTCHAR 2113
ENCODING 8467
SWIDTH 285 0
DWIDTH 6 0
BBX 7 16 0 0
BITMAP
18
24
24
24
28
28
30
30
20
60
60
A0
20
20
22
3C
ENDCHAR
STARTCHAR 2116
ENCODING 8470
SWIDTH 1000 0
DWIDTH 21 0
BBX 18 16 2 0
BITMAP
804380
804440
C04840
C04840
A04840
A04840
904840
884840
884440
844380
844000
824000
824000
814000
808000
808000
ENDCHAR
STARTCHAR 2120
ENCODING 8480
SWIDTH 857 0
DWIDTH 18 0
BBX 15 11 1 5
BITMAP
7A02
8302
8306
8286
828A
624A
1A52
0A52
0A22
0A22
F202
ENDCHAR
STARTCHAR 2122
ENCODING 8482
SWIDTH 857 0
DWIDTH 18 0
BBX 17 11 0 5
BITMAP
FE8080
108180
10C180
10C280
10A280
10A480
10A480
109480
109880
108880
108080
ENDCHAR
STARTCHAR 2126
ENCODING 8486
SWIDTH 571 0
DWIDTH 12 0
BBX 10 16 1 0
BITMAP
1E00
2100
4080
4040
8040
8040
8040
8040
8040
8040
8040
8040
4080
4080
2100
F3C0
ENDCHAR
STARTCHAR 212E
ENCODING 8494
SWIDTH 809 0
DWIDTH 17 0
BBX 15 16 1 0
BITMAP
07C0
1820
2018
6008
600C
E00C
E00C
FFFE
E000
E000
E000
6000
6004
2008
1010
0FE0
ENDCHAR
STARTCHAR 2153
ENCODING 8531
SWIDTH 761 0
DWIDTH 16 0
BBX 14 19 1 -2
BITMAP
2020
6020
A040
2040
2040
2080
2080
2100
2178
2204
FA04
0204
0418
0428
0804
0804
0804
108C
0070
ENDCHAR
STARTCHAR 2154
ENCODING 8532
SWIDTH 761 0
DWIDTH 16 0
BBX 14 19 1 -2
BITMAP
F020
0820
0840
0840
1040
1080
2080
2100
4178
8204
FA04
0204
0418
0428
0804
0804
0804
108C
0070
ENDCHAR
STARTCHAR 215B
ENCODING 8539
SWIDTH 761 0
DWIDTH 16 0
BBX 15 19 1 -2
BITMAP
2020
6020
A040
2040
2040
2080
2080
2100
213C
2244
FA44
0244
0424
0438
0844
0842
0842
1044
0038
ENDCHAR
STARTCHAR 215C
ENCODING 8540
SWIDTH 761 0
DWIDTH 16 0
BBX 15 19 1 -2
BITMAP
F020
0820
0840
0840
1040
7080
0880
0900
093C
0A44
F244
0244
0424
0438
0844
0842
0842
1044
0038
ENDCHAR
STARTCHAR 215D
ENCODING 8541
SWIDTH 761 0
DWIDTH 16 0
BBX 15 19 1 -2
BITMAP
7820
8020
8040
8040
C040
3080
0880
0500
093C
0A44
F244
0244
0424
0438
0844
0842
0842
1044
0038
ENDCHAR
STARTCHAR 215E
ENCODING 8542
SWIDTH 761 0
DWIDTH 16 0
BBX 15 19 1 -2
BITMAP
F820
0820
0840
1040
1040
2080
2080
2100
413C
4244
4244
0244
0424
0438
0844
0842
0842
1044
0038
ENDCHAR
STARTCHAR 2190
ENCODING 8592
SWIDTH 666 0
DWIDTH 14 0
BBX 10 10 2 3
BITMAP
0800
1000
2000
4000
8000
FFC0
4000
2000
1000
0800
ENDCHAR
STARTCHAR 2191
ENCODING 8593
SWIDTH 619 0
DWIDTH 13 0
BBX 10 10 2 3
BITMAP
0800
1C00
2A00
4900
88C0
0800
0800
0800
0800
0800
ENDCHAR
STARTCHAR 2192
ENCODING 8594
SWIDTH 666 0
DWIDTH 14 0
BBX 10 10 2 3
BITMAP
0400
0200
0100
0080
0040
FFC0
0080
0100
0200
0400
ENDCHAR
STARTCHAR 2193
ENCODING 8595
SWIDTH 619 0
DWIDTH 13 0
BBX 10 10 2 3
BITMAP
0800
0800
0800
0800
0800
88C0
4900
2A00
1C00
0800
ENDCHAR
STARTCHAR 2202
ENCODING 8706
SWIDTH 476 0
DWIDTH 10 0
BBX 8 16 1 0
BITMAP
F0
0C
02
02
02
01
3D
C3
81
81
81
81
82
82
82
7C
ENDCHAR
STARTCHAR 2206
ENCODING 8710
SWIDTH 571 0
DWIDTH 12 0
BBX 12 16 0 0
BITMAP
0400
0600
0600
0900
0900
0900
1080
1080
1080
2040
2040
2040
4020
4020
4020
FFF0
ENDCHAR
STARTCHAR 220F
ENCODING 8719
SWIDTH 571 0
DWIDTH 12 0
BBX 8 21 2 -5
BITMAP
FF
81
81
81
81
81
81
81
81
81
81
81
81
81
81
81
81
81
81
81
81
ENDCHAR
STARTCHAR 2211
ENCODING 8721
SWIDTH 476 0
DWIDTH 10 0
BBX 8 21 1 -5
BITMAP
FF
80
80
40
40
20
20
10
10
08
08
08
08
10
20
20
40
40
80
80
FF
ENDCHAR
STARTCHAR 2212
ENCODING 8722
SWIDTH 523 0
DWIDTH 11 0
BBX 7 1 2 7
BITMAP
FE
ENDCHAR
STARTCHAR 2215
ENCODING 8725
SWIDTH 190 0
DWIDTH 4 0
BBX 4 16 0 0
BITMAP
10
10
10
10
20
20
20
20
20
20
40
40
40
40
40
80
ENDCHAR
STARTCHAR 2219
ENCODING 8729
SWIDTH 190 0
DWIDTH 4 0
BBX 2 2 1 7
BITMAP
80
C0
ENDCHAR
STARTCHAR 221A
ENCODING 8730
SWIDTH 619 0
DWIDTH 13 0
BBX 12 16 1 0
BITMAP
0010
0010
0020
0020
E020
1040
1040
1040
0840
0880
0880
0480
0500
0500
0500
0200
ENDCHAR
STARTCHAR 221E
ENCODING 8734
SWIDTH 809 0
DWIDTH 17 0
BBX 15 6 1 5
BITMAP
7C7C
8282
8102
8102
8282
7C7C
ENDCHAR
STARTCHAR 222B
ENCODING 8747
SWIDTH 238 0
DWIDTH 5 0
BBX 5 21 0 -5
BITMAP
18
20
20
20
20
20
20
20
20
20
20
20
20
20
10
10
10
10
10
10
E0
ENDCHAR
STARTCHAR 2248
ENCODING 8776
SWIDTH 523 0
DWIDTH 11 0
BBX 7 6 2 5
BITMAP
E2
9E
00
00
E2
9E
ENDCHAR
STARTCHAR 2260
ENCODING 8800
SWIDTH 523 0
DWIDTH 11 0
BBX 7 8 2 4
BITMAP
02
04
FA
10
20
7E
80
80
ENDCHAR
STARTCHAR 2264
ENCODING 8804
SWIDTH 523 0
DWIDTH 11 0
BBX 7 12 2 0
BITMAP
02
0C
30
C0
C0
30
0C
02
00
00
00
FE
ENDCHAR
STARTCHAR 2265
ENCODING 8805
SWIDTH 523 0
DWIDTH 11 0
BBX 7 12 2 0
BITMAP
80
40
38
06
06
18
60
80
00
00
00
FE
ENDCHAR
STARTCHAR 25CA
ENCODING 9674
SWIDTH 523 0
DWIDTH 11 0
BBX 8 16 1 0
BITMAP
08
18
14
24
22
42
41
81
81
41
42
22
24
24
14
08
ENDCHAR
STARTCHAR FB01
ENCODING 64257
SWIDTH 476 0
DWIDTH 10 0
BBX 8 17 0 0
BITMAP
1C
21
21
20
20
FC
21
21
21
21
21
21
21
21
21
21
21
ENDCHAR
STARTCHAR FB02
ENCODING 64258
SWIDTH 476 0
DWIDTH 10 0
BBX 8 17 0 0
BITMAP
1D
21
21
21
21
FD
21
21
21
21
21
21
21
21
21
21
21
ENDCHAR
ENDFONT
